<svg xmlns="http://www.w3.org/2000/svg" id="Layer_1" enable-background="new 0 0 64 64" viewBox="0 0 64 64"><path fill="#dededf" d="M39.25 55.38c0 0 1.27.33 1.74 1.54 0 0-.73-.23-1.9-.71L39.25 55.38zM33.24 62.32c0 0-.21 1.12.09 1.68 0 0 .29-.13.54-.71l.4-.92-.46-.81L33.24 62.32zM28.11 61.94c0 0-.4.27-.68.92 0 0-.33-1.14-.12-1.8l.85-.31.25.33L28.11 61.94zM26.09 57.66c0 0-.89.45-.89 1.38 0 0 .47-.52 1.05-.58l.68-.21.04-.46-.45-.29L26.09 57.66z"/><path fill="#f4a300" d="M36.65,47.07c-0.36,1.88-0.14,4.73-0.49,7.5c-0.05,0.58,0.61,0.8,1.21,0.8c0.64-0.08,1.27-0.09,1.88,0
			c-0.05,0.65,0.2,1.06,0.94,1.1c-0.03,0.23-0.36,0.36-1.38,0.28c-0.61-0.14-1.33,0.15-2.1,0.63c0.1,1.01-0.25,1.81-0.88,2.45
			c-0.44,0.39-0.78,1.02-1.08,1.74c-0.15,0.68-0.53,1.19-0.88,1.71c0.15-0.7,0.11-1.19-0.63-0.97c-0.05-1.52,0.52-2.62,1.24-3.61
			l0.03-0.69c-0.64,0.17-1.25,0.45-1.79,0.88c-0.71,0.86-1.81,1.39-3.23,1.68c-0.57,0.22-1.02,0.68-1.38,1.35
			c0.29-0.85-0.15-0.97-0.8-0.88c0.21-1.1,1.11-2.15,3.09-3.12c-1.05-0.14-1.9-0.18-2.37-0.03c-0.52,0.45-1.13,0.57-1.76,0.55
			c0.45-0.43,0.42-0.71-0.17-0.8c1.33-1.26,2.95-1.87,4.88-1.82c0.96,0.08,1.68-0.62,2.16-2.07c0.66-2.15,0.6-4.78,0.15-6.95
			L36.65,47.07z"/><path fill="#dededf" d="M30.33 53.66c0 0 1.27.33 1.74 1.54 0 0-.73-.23-1.9-.71L30.33 53.66zM24.31 60.61c0 0-.21 1.12.09 1.68 0 0 .29-.13.54-.71l.4-.92-.46-.81L24.31 60.61zM19.18 60.22c0 0-.4.27-.68.92 0 0-.33-1.14-.12-1.8l.85-.31.25.33L19.18 60.22zM17.17 55.95c0 0-.89.45-.89 1.38 0 0 .47-.52 1.05-.58l.68-.21.04-.46-.45-.29L17.17 55.95z"/><path fill="#f4a300" d="M27.73,45.35c-0.36,1.88-0.14,4.73-0.49,7.5c-0.05,0.58,0.61,0.8,1.21,0.8c0.64-0.08,1.27-0.09,1.88,0
			c-0.05,0.65,0.2,1.06,0.94,1.1c-0.03,0.23-0.36,0.36-1.38,0.28c-0.61-0.14-1.33,0.15-2.1,0.63c0.1,1.01-0.25,1.81-0.88,2.45
			c-0.44,0.39-0.78,1.02-1.08,1.74c-0.15,0.68-0.53,1.19-0.88,1.71c0.15-0.7,0.11-1.19-0.63-0.97c-0.05-1.52,0.52-2.62,1.24-3.61
			l0.03-0.69c-0.64,0.17-1.25,0.45-1.79,0.88c-0.71,0.86-1.81,1.39-3.23,1.68c-0.57,0.22-1.02,0.68-1.38,1.35
			c0.29-0.85-0.15-0.97-0.8-0.88c0.21-1.1,1.11-2.15,3.09-3.12c-1.05-0.14-1.9-0.18-2.37-0.03c-0.52,0.45-1.13,0.57-1.76,0.55
			c0.45-0.43,0.42-0.71-0.17-0.8c1.33-1.26,2.95-1.87,4.88-1.82c0.96,0.08,1.68-0.62,2.16-2.07c0.66-2.15,0.6-4.78,0.15-6.95
			L27.73,45.35z"/><path fill="#e6ac43" d="M50.82,32.54l-2.58-1.16l-3.09-1.35l-2.9-7.09v-1.45c0.1-0.08,0.19-0.17,0.28-0.26
		c0.32-0.74,0.72-1.49,1.12-2.07c0,0,0-0.01,0-0.01l0.06-0.04c0.01-0.03,0.02-0.06,0.02-0.08c1.22-4.41,2.39-9.08,5.11-9.12
		c1.43-3.3,5.14-3.3,4.88,1.08c3.09-1.53,4.43,1.09,3.23,4.55c2.79,0.01,3.09,2.54,0.86,5.63c2.23-0.43,3.08,1.76-0.14,5.13
		C60.04,27.41,55.33,33.51,50.82,32.54z"/><path fill="#c41b0d" d="M20.08,6.81c2.36,0.26,3.03-1.01,2.56-3.34c-0.15-0.56-0.58-0.68-1.43-0.58c-0.79,0.13-1.3,0.02-1.35-0.61
		c0.08-2.36-1.54-2.55-2.34-1.49c-0.43,0.65-0.74,0.81-1.27,0.25c-1.24-1.22-2.7-1.62-3.06,0.14c-0.19,1-0.32,1.41-1.02,1.02
		c-2.28-1.16-3.11-0.44-2.73,1.6c0.19,0.8,0.2,1.35-0.61,1.21c-1.55-0.23-2.61,0.3-1.88,1.46c0.61,0.8,0.96,1.32,0.26,1.59
		C6.12,8.61,6.23,9.73,7.7,10.12h1.39L20.08,6.81z"/><path fill="#ffdf75" d="M50.82,32.54c-0.03,0.26-0.06,0.53-0.1,0.79c-0.36,1.58-0.87,1.05-1.24,0c0,0,0,0,0,0.01
		c0.41,3.3-1.1,5.34-1.32,2.66c-0.41,5.19-3.79,6.95-3.19,3.47c-3.23,7.01-10.17,9.8-14.02,6.25c-5.09,2.83-8.4,0.56-9.8-4.8
		c-2.37-0.64-4.28-1.61-5.77-2.82c-2.78-2.26-4.06-5.34-4.06-8.6c0-1.34,0.22-2.7,0.64-4.05c0.79-1.76,0.8-2.55,0.82-2.68
		l-0.98-9.73l-2.78-2.93c0.98-5.06,10.4-8.49,15.57,2.1c0.75,1.38,1.37,2.8,1.88,4.24c0.87,2.24,1.93,3.56,3.65,4.21
		c0.33,0.13,0.67,0.23,1.05,0.3c0.28,0.06,0.58,0.11,0.9,0.14c1.19,0.07,2.3,0.35,3.31,0.93c2.14,1.05,5.14,0.92,6.88-0.55
		c0.1-0.08,0.19-0.17,0.28-0.26c2.89-0.38,4.85,0.94,5.71,4.24c0.06,0.06,0.11,0.12,0.16,0.19v0C50.5,28.05,51.02,30.32,50.82,32.54
		z"/><path fill="#f1b974" d="M48.16,36c-0.41,5.19-3.79,6.95-3.19,3.47c-3.23,7.01-10.17,9.8-14.02,6.25c-5.09,2.83-8.4,0.56-9.8-4.8
		c-2.37-0.64-4.28-1.61-5.77-2.82c1.93,0.04,3.93,0.17,5.77,0.66c4.12,1.54,4.76,4.62,9.8,4.8c3.28,2.68,11.03,0.34,14.02-6.25
		c-0.6,3.48,2.77,1.72,3.19-3.47c0.17,2.02,1.07,1.36,1.32-0.5C49.89,36.65,48.38,38.69,48.16,36z"/><path fill="#fcd66f" d="M48.4,25.67L48.4,25.67l-0.14-0.02c-0.01-0.05-0.02-0.11-0.03-0.16c-0.86-3.3-2.81-4.62-5.71-4.24
		c0.32-0.74,0.72-1.49,1.12-2.07c0,0,0-0.01,0-0.01c0.03-0.04,0.06-0.09,0.08-0.13c0.92-1.32,1.76-1.69,1.4,1.09
		c1.17-1.23,1.82-1.14,1.61,1.12c1.39-0.29,1.54,0.37,1.08,2.07C48.72,23.21,48.67,24.16,48.4,25.67z"/><path fill="#d08230" d="M46.45,26.12c1.75,3.8,0.64,8.4-1.25,2.5c0.7,5.27-0.61,6.06-1.69,3.52c-0.36,2.35-1.57,2.06-2.61-0.16
		c0,0,0.3,1.13-0.06,1.39c-0.94-0.98-2.24-2.18-3.93-3.64c-0.6-0.67-1.25-1.31-1.94-1.88c-1.76-1.49-3.75-2.59-5.64-2.97
		c0.08-0.8,0.43-1.13,1.1-1.51c0.72-0.46,1.07-0.98,1.07-1.51c0-0.3-0.11-0.59-0.33-0.87c0.28,0.06,0.58,0.11,0.9,0.14
		c1.19,0.07,2.3,0.35,3.31,0.93c2.02,0.99,4.81,0.93,6.58-0.32c0.21-0.15,0.4-0.3,0.58-0.49c2.89-0.38,4.85,0.94,5.71,4.24
		C48.66,27.86,47.62,27.13,46.45,26.12z"/><path fill="#eb8339" d="M30.42,23.36c-0.68,0.38-1.03,0.71-1.1,1.52l-2.34,1.4l-2.62,1.16c-0.48,0.26-0.75,0.32-1.35,0
		c-0.53-0.2-0.64,0.39-0.53,0.83c0.22,1.43-0.76,1.66-1.79,0.94c-0.66-0.51-1.1-0.3-1.25,0.34c-0.57,2.21-1.69,1.91-2.89,0.52
		c-0.34-0.41-0.59-0.33-0.94,0c-1.19,1.04-1.74,0.05-1.71-1.02c-0.01-0.52-0.43-0.64-0.87,0.11c-0.53,1.04-1.28,1.13-1.71,0.35
		c0-1.34,0.22-2.7,0.64-4.05c0.79-1.76,0.8-2.55,0.82-2.68l-3.09-8.67l0.83-2.4l-1.51-1.58c0.98-5.06,10.4-8.49,15.57,2.1
		c0.75,1.38,1.37,2.8,1.88,4.24c0.41,1.04,0.85,1.88,1.39,2.55c0.61,0.77,1.34,1.31,2.26,1.66c0.33,0.13,0.67,0.23,1.05,0.3
		C31.77,21.76,31.55,22.64,30.42,23.36z"/><path fill="#fca028" d="M25.9,21.43c-1.46-0.15-2.09,0.5-2.15,1.35c-0.09,1.31-0.51,2.22-1.69,2.21c-0.57,0.04-1.05,0.38-1.3,1.05
		c-0.36,1-0.77,1.53-1.65,1.02c-0.6-0.38-1.27-0.35-1.91,0.22c-2.56,2.11-4.04-2.23-2.04-5.37c0.36-0.41,0.46-1.12,0.27-2.15
		c-0.35-0.89-0.13-1.65,0.75-2.26c1.24-0.97,1.33-2.1,0.54-3.34l-3.97-2.73l-2.25,0.29l-1.51-1.58c0.98-5.06,10.4-8.49,15.57,2.1
		c0.75,1.38,1.37,2.8,1.88,4.24c0.41,1.04,0.85,1.88,1.39,2.55C28.22,20.88,27.56,21.68,25.9,21.43z"/><path fill="#c41b0d" d="M18.18,10.89c-0.97,0.75-1.51,1.61-1.46,2.99c0.22,2.73-0.59,3.96-2.72,3.26c1.85,5.14-0.32,6.7-2.82,4.95
		c-0.86,0.8-1.71,0.71-2.57,0c-1.27-1.07-1.58-2.99-0.9-4.22c0.6-1.26,1.89-2.19,1.97-3.49c0.01-0.09,0.01-0.18,0-0.27l0.14,0.18
		l0.56,0.73l0.5-1.78c0.3-0.43,0.15-0.96-0.43-1.03c-0.56-0.04-0.93-0.44-0.7-0.98c0.25-0.5,0.18-0.89-0.07-0.95
		c-0.01,0-0.03,0-0.04,0l0.04-0.07c1.2-2.46,2.81-4.07,5.38-3.69C17.08,6.96,18.27,8.26,18.18,10.89z"/><path fill="#e6ac6c" d="M9.69,10.27c-2.58-0.37-4.33,0.66-5.47,2.69c0.76-0.48,1.47-0.79,2.4-0.52c0.94,0.41,1.62,0.53,2.97,0.13
		c-0.76,1.35-2.12,2.17-3.92,2.62c1.93,0.15,4.03-0.27,5.23-1.96c0.3-0.43,0.15-0.96-0.43-1.03c-0.56-0.04-0.93-0.44-0.7-0.98
		C10.01,10.73,9.93,10.34,9.69,10.27z"/><path fill="#e6ac43" d="M25.07,25.57c3.41-2.26,8.45,0.37,11.83,4.15c5.96,5.14,7.01,7.21,5.15,6.74c2.03,1.19,1.69,2.16-0.93,2.13
		c0.44,0.99-1.65,1.68-5.38,0.66c-0.07,1.1-3.02,0.62-5.81-0.66C23.67,36.71,21.94,27.83,25.07,25.57z"/><path fill="#dededf" d="M19.35,13.32c-0.26,1.15-1.07,1.94-1.83,1.78c-0.75-0.17-1.16-1.24-0.9-2.38s1.07-1.94,1.83-1.78
		C19.2,11.1,19.61,12.17,19.35,13.32z"/><path fill="#fcd66f" d="M46.53,24.18c-1.16-2.43-3.58-2.15-3.58-2.15c-0.43,0.12-0.74-0.03-0.99-0.31
		c-1.77,1.25-4.56,1.31-6.58,0.32c-1.01-0.58-2.12-0.86-3.31-0.93c-0.32-0.04-0.62-0.08-0.9-0.14c0.22,0.28,0.33,0.58,0.33,0.87
		c0,0.53-0.35,1.05-1.07,1.51c-0.68,0.38-1.02,0.71-1.1,1.51c1.9,0.38,3.88,1.48,5.64,2.97c3,2.35,2.55,0.16,2.52,0.01
		c2.06,2.39,2.7,1.76,2.7,1.76c1.59-0.3,0.89-1.79,0.57-2.35c1.91,2.97,3.08,2.28,3.08,2.28c0.71-1.32-0.46-3.26-0.46-3.26
		c1.64,1.54,2.19,1.55,2.19,1.55c0.8-0.99-0.49-2.4-0.61-2.54C48.03,27.49,46.53,24.18,46.53,24.18z"/><path fill="#eff3f5" d="M16.44,8.78c0.18,0.96-0.38,1.87-1.24,2.03c-0.87,0.16-1.72-0.48-1.9-1.44c-0.18-0.96,0.38-1.87,1.24-2.03
		C15.41,7.18,16.26,7.82,16.44,8.78z"/><path fill="#59cbef" d="M16.33,8.97c0.16,0.87-0.34,1.69-1.13,1.84c-0.79,0.15-1.56-0.43-1.72-1.3c-0.16-0.87,0.34-1.69,1.13-1.84
		C15.39,7.51,16.16,8.1,16.33,8.97z"/><path fill="#262626" d="M16.22,9.14c0.15,0.79-0.31,1.54-1.02,1.67c-0.71,0.14-1.41-0.39-1.56-1.18c-0.15-0.79,0.31-1.54,1.02-1.67
		C15.37,7.82,16.07,8.35,16.22,9.14z"/><path fill="#eff3f5" d="M16.25,9.45c0,0.43-0.35,0.77-0.77,0.77c-0.43,0-0.77-0.35-0.77-0.77c0-0.43,0.35-0.77,0.77-0.77
		C15.91,8.68,16.25,9.02,16.25,9.45z" opacity=".5"/></svg>