<?xml version="1.0" encoding="UTF-8"?>
<svg xmlns="http://www.w3.org/2000/svg" xmlns:xlink="http://www.w3.org/1999/xlink" width="512px" height="512px" viewBox="0 0 512 512" version="1.1">
    
    <title>Heat temprature</title>
    <desc>Created with Sketch.</desc>
    <defs>
        <polygon id="path-1" points="0 504.685714 503.595521 504.685714 503.595521 0.782628571 0 0.782628571"/>
    </defs>
    <g id="SVG" stroke="none" stroke-width="1" fill="none" fill-rule="evenodd">
        <g id="Heat-temprature">
            <g id="8" transform="translate(4.000000, 0.000000)">
                <path d="M481.891008,150.286954 C496.25504,135.899754 496.25504,112.574497 481.891008,98.1872965 L408.814816,24.9859251 C394.450783,10.5987251 371.163087,10.5987251 356.791752,24.9859251 L107.885785,274.300668 C94.0110207,288.197811 85.3137343,306.432325 83.2398222,325.968782 L76.7624981,386.896782 L20.5039805,443.246039 C9.29463152,454.473468 7.37407205,472.693354 17.3931123,484.988668 C28.8945616,499.097925 49.9184806,499.873239 62.4641885,487.307297 L118.708101,430.972668 L181.392825,424.287411 C200.897823,422.202839 219.110276,413.491525 232.985041,399.594382 L481.891008,150.286954 Z" id="Fill-1" fill="#FEFEFE"/>
                <g id="Group-5" transform="translate(0.000000, 2.471091)">
                    <mask id="mask-2" fill="white">
                        <use xlink:href="#path-1"/>
                    </mask>
                    <g id="Clip-4"/>
                    <path d="M382.802554,22.7108571 C376.193784,22.7108571 369.57041,25.2342857 364.538982,30.2738286 L115.633015,279.588571 C103.569273,291.664457 95.93085,307.668114 94.1271306,324.666514 L87.6498065,385.594514 C87.3869162,388.088686 86.2769351,390.414629 84.5024258,392.184686 L28.2439082,448.533943 C20.7077205,456.082286 19.6707644,467.960686 25.8851983,475.574857 C29.4050069,479.8976 34.4072245,482.435657 39.9717352,482.7136 C45.4413133,483.072 50.8670763,480.943543 54.7154978,477.0816 L110.95941,420.739657 C112.73392,418.9696 115.056117,417.857829 117.546272,417.594514 L180.230996,410.909257 C197.194721,409.102629 213.172607,401.451886 225.23635,389.368686 L474.14962,140.053943 C484.219778,129.974857 484.219778,113.554286 474.14962,103.4752 L401.073427,30.2738286 C396.034697,25.2342857 389.418625,22.7108571 382.802554,22.7108571 M40.9575737,504.685714 C40.2638355,504.685714 39.5627948,504.663771 38.861754,504.6272 C27.2069521,504.042057 16.2897034,498.505143 8.91417088,489.450057 C-4.32527518,473.226971 -2.63109344,448.438857 12.7552898,433.020343 L66.2753671,379.413943 L72.3437508,322.333257 C74.6805532,300.375771 84.5462408,279.676343 100.144397,264.074971 L349.050364,14.7602286 C367.664456,-3.88388571 397.947954,-3.87657143 416.562046,14.7602286 L489.638238,87.9542857 C508.25233,106.5984 508.25233,136.930743 489.638238,155.574857 L240.724968,404.882286 C225.134115,420.498286 204.475321,430.3872 182.545891,432.720457 L123.716891,439.003429 L70.2041161,492.5952 C62.4707607,500.341029 51.9040324,504.685714 40.9575737,504.685714" id="Fill-3" fill="#2E2E30" mask="url(#mask-2)"/>
                </g>
                <path d="M42.2968536,421.417285 L20.4988687,443.250428 C9.29682227,454.470542 7.3762628,472.690428 17.3953031,484.985742 C28.8967523,499.102314 49.9206714,499.870314 62.4590767,487.304371 L85.2721101,464.461857 L42.2968536,421.417285 Z" id="Fill-6" fill="#727272"/>
                <g id="Group-10" transform="translate(0.000000, 408.820297)" fill="#2E2E30">
                    <path d="M42.2946628,28.1149765 L28.2446384,42.1876622 C20.7084507,49.7360051 19.6714946,61.6070908 25.8859285,69.2212622 C29.4057371,73.5513194 34.4152572,76.0893765 39.9797679,76.3673194 C45.6026987,76.7257194 50.8678066,74.5899479 54.716228,70.7280051 L69.7813009,55.6459479 L42.2946628,28.1149765 Z M40.9583039,98.3394337 C40.2718682,98.3394337 39.5708275,98.3174908 38.8697868,98.2809194 C27.2222874,97.6957765 16.2904337,92.1588622 8.91490113,83.1037765 C-4.32454493,66.8806908 -2.63036319,42.0852622 12.7560201,26.6740622 L34.5467024,4.83360508 C38.6507116,0.722976508 45.924009,0.715662222 50.0426232,4.83360508 L93.0105772,47.8854908 C97.2898466,52.1716622 97.2898466,59.1129194 93.0105772,63.3990908 L70.2048464,86.2416051 C62.471491,93.9947479 51.9120651,98.3394337 40.9583039,98.3394337 L40.9583039,98.3394337 Z" id="Fill-8"/>
                </g>
                <path d="M148.994521,358.422999 L148.994521,358.422999 C141.42182,350.838085 141.42182,338.425742 148.994521,330.840828 L355.421802,124.080599 C362.994502,116.495685 375.386857,116.495685 382.959558,124.080599 L382.959558,124.080599 C390.532258,131.665514 390.532258,144.077857 382.959558,151.662771 L176.532276,358.422999 C168.959576,366.007914 156.567221,366.007914 148.994521,358.422999" id="Fill-11" fill="#E42E44"/>
                <path d="M369.188489,129.342497 C367.005039,129.342497 364.82159,130.176325 363.16392,131.836668 L156.736639,338.596897 C155.13739,340.198725 154.268391,342.334497 154.268391,344.631182 C154.268391,346.920554 155.144692,349.063639 156.736639,350.665468 C160.05928,353.993468 165.470438,353.993468 168.793079,350.665468 L375.213058,143.905239 C376.805004,142.310725 377.681305,140.167639 377.681305,137.870954 C377.681305,135.581582 376.805004,133.438497 375.213058,131.843982 C373.555388,130.176325 371.371939,129.342497 369.188489,129.342497 M162.761208,375.095182 C154.969432,375.095182 147.184959,372.118268 141.248021,366.179068 C135.515552,360.437354 132.360869,352.786611 132.360869,344.631182 C132.360869,336.468439 135.515552,328.817697 141.248021,323.075982 L347.675302,116.323068 C359.541877,104.437354 378.835101,104.437354 390.701676,116.323068 C396.434144,122.057468 399.588828,129.715525 399.588828,137.870954 C399.588828,146.026382 396.434144,153.684439 390.701676,159.418839 L184.281697,366.179068 C178.344759,372.118268 170.560286,375.095182 162.761208,375.095182" id="Fill-13" fill="#2E2E30"/>
                <path d="M123.178696,260.276257 L144.1588,281.290199" id="Fill-15" fill="#FEFEFE"/>
                <path d="M144.1588,292.263822 C141.354637,292.263822 138.550474,291.195937 136.41084,289.052851 L115.430736,268.031594 C111.151466,263.752737 111.151466,256.804165 115.430736,252.517994 C119.710005,248.231822 126.647387,248.231822 130.926657,252.517994 L151.906761,273.531937 C156.178727,277.818108 156.178727,284.766679 151.906761,289.052851 C149.767126,291.195937 146.962963,292.263822 144.1588,292.263822" id="Fill-17" fill="#2E2E30"/>
                <path d="M165.192212,218.194245 L186.172316,239.208188" id="Fill-19" fill="#FEFEFE"/>
                <path d="M186.169395,250.178154 C183.365232,250.178154 180.56107,249.110268 178.421435,246.967182 L157.441331,225.953239 C153.162062,221.674382 153.162062,214.725811 157.441331,210.439639 C161.7206,206.153468 168.657982,206.153468 172.937252,210.439639 L193.917356,231.446268 C198.189323,235.732439 198.189323,242.681011 193.917356,246.967182 C191.777721,249.110268 188.973558,250.178154 186.169395,250.178154" id="Fill-21" fill="#2E2E30"/>
                <path d="M207.206459,176.112965 L228.186563,197.126908" id="Fill-23" fill="#FEFEFE"/>
                <path d="M228.187293,208.096142 C225.38313,208.096142 222.578967,207.028257 220.439333,204.885171 L199.459229,183.871228 C195.179959,179.592371 195.179959,172.643799 199.459229,168.357628 C203.738498,164.071457 210.67588,164.071457 214.95515,168.357628 L235.935254,189.364257 C240.20722,193.650428 240.20722,200.598999 235.935254,204.885171 C233.795619,207.028257 230.991456,208.096142 228.187293,208.096142" id="Fill-25" fill="#2E2E30"/>
                <path d="M249.220705,134.030954 L270.200809,155.044897" id="Fill-27" fill="#FEFEFE"/>
                <path d="M270.198619,166.014131 C267.394456,166.014131 264.590293,164.946245 262.450658,162.803159 L241.470554,141.789217 C237.191285,137.510359 237.191285,130.561788 241.470554,126.275617 C245.749824,121.989445 252.687206,121.989445 256.966475,126.275617 L277.946579,147.282245 C282.218546,151.568417 282.218546,158.516988 277.946579,162.803159 C275.806944,164.946245 273.002782,166.014131 270.198619,166.014131" id="Fill-29" fill="#2E2E30"/>
                <path d="M291.234952,91.9489422 L312.215056,112.962885" id="Fill-31" fill="#FEFEFE"/>
                <path d="M312.216516,123.935045 C309.412354,123.935045 306.608191,122.867159 304.468556,120.724074 L283.488452,99.7028165 C279.209183,95.4239594 279.209183,88.4753879 283.488452,84.1892165 C287.767721,79.9030451 294.705103,79.9030451 298.984373,84.1892165 L319.964477,105.203159 C324.236444,109.489331 324.236444,116.437902 319.964477,120.724074 C317.824842,122.867159 315.020679,123.935045 312.216516,123.935045" id="Fill-33" fill="#2E2E30"/>
                <path d="M481.891738,98.1836394 L456.070072,72.3203251 C470.441406,86.7148394 470.441406,110.040097 456.070072,124.427297 L207.164104,373.734725 C193.28934,387.631868 175.084189,396.343182 155.571889,398.427754 L92.8871648,405.113011 L36.6432523,461.447639 C29.7131727,468.396211 20.2053079,471.109811 11.1282911,469.902954 C11.7490043,475.293582 13.7644963,480.537925 17.3938426,484.985011 C28.8952918,499.101582 49.9192109,499.869582 62.4649187,487.303639 L118.708831,430.969011 L181.393555,424.283754 C200.898553,422.206497 219.111007,413.495182 232.985771,399.598039 L481.891738,150.283297 C496.25577,135.896097 496.25577,112.570839 481.891738,98.1836394" id="Fill-35" fill="#040605" opacity="0.15"/>
            </g>
        </g>
    </g>

	<metadata>
		<rdf:RDF xmlns:rdf="http://www.w3.org/1999/02/22-rdf-syntax-ns#" xmlns:rdfs="http://www.w3.org/2000/01/rdf-schema#" xmlns:dc="http://purl.org/dc/elements/1.1/">
			<rdf:Description about="https://iconscout.com/legal#licenses" dc:title="Heat temprature" dc:description="Heat temprature" dc:publisher="Iconscout" dc:date="2017-04-20" dc:format="image/svg+xml" dc:language="en">
				<dc:creator>
					<rdf:Bag>
						<rdf:li>AomAm .</rdf:li>
					</rdf:Bag>
				</dc:creator>
			</rdf:Description>
		</rdf:RDF>
    </metadata></svg>
