<?xml version="1.0" encoding="UTF-8"?><!DOCTYPE svg PUBLIC "-//W3C//DTD SVG 1.1//EN" "http://www.w3.org/Graphics/SVG/1.1/DTD/svg11.dtd"><svg xmlns="http://www.w3.org/2000/svg" xmlns:xlink="http://www.w3.org/1999/xlink" version="1.1" id="Precison_1_" x="0px" y="0px" width="512px" height="512px" viewBox="0 0 512 512" xml:space="preserve"><path id="Background" fill="#5CA47A" d="M256.151 0C397.423 0 512 114.577 512 255.853 512 397.423 397.423 512 256.151 512 114.577 512 0 397.423 0 255.853 0 114.577 114.577 0 256.151 0z"/><g id="Precison"><path fill="#4E5A62" d="M242.653 163.617H247.453c1.196 0 2.396 1.2 2.099 2.4 0 1.2-.903 2.4-2.4 2.4l-.903-.301H240.252c-1.497 0-2.4-.899-2.4-2.099-.301-1.501.903-2.4 2.099-2.4h2.702zm-17.095.9c1.497-.302 2.697.602 2.697 2.099.301 1.204-.899 2.4-2.099 2.4l-.598.301h-1.501l-.899.301h-.903l-.598.301c-1.501 0-2.697-.903-2.697-2.099-.301-1.204.598-2.4 1.798-2.701h.602l.895-.301h.903l.899-.301h1.501zm-18.901 3.303c1.204-.301 2.701.598 3.002 1.798.301 1.196-.602 2.697-1.798 2.998h-.301l-.602.297h-.899l-.899.301-.899.301-.598.302h-.302c-1.204.301-2.4-.302-3.002-1.502-.301-1.501.602-2.697 1.798-2.998l.903-.301.899-.301.9-.297.903-.301h.895v-.297zm-18.295 6.298c1.2-.603 2.701 0 3.299 1.196.302 1.204-.301 2.4-1.497 3.002l-.301.301-.903.297-.598.301-.899.297-.899.301-.598.301c-1.204.602-2.701 0-3.002-1.2-.602-1.2 0-2.396 1.2-2.998l.598-.301.903-.598.598-.301.899-.297.903-.301h.297zm-17.098 8.095c.903-.598 2.4 0 3.002.903.899 1.196.301 2.697-.602 3.296l-.598.301-.598.301-.903.602-.598.297-.899.598-.602.301c-1.196.602-2.401.301-3.295-.899-.603-.899-.302-2.401.894-2.999l.603-.602.899-.301.598-.598.903-.297.598-.602.598-.301zm-16.192 10.797c1.196-.899 2.697-.598 3.295.301.903 1.2.602 2.701-.301 3.299l-.297.301-.598.598-.903.602-.598.301-.598.599-.602.598c-1.201.903-2.702.602-3.3-.297-.899-.9-.899-2.401.297-3.3l.602-.602.602-.598.899-.598.598-.602.603-.301.301-.301zm-14.402 12.599a2.36 2.36 0 0 1 3.304 0c.895.899.895 2.4 0 3.299v.301l-.602.598-.602.598-.598.602-.598.603-.603.598h-.301c-.895.899-2.4 1.2-3.295.301a2.349 2.349 0 0 1 0-3.3v-.301l.598-.602.598-.598.602-.598.899-.903.598-.598zm-12.595 14.397c.603-.899 2.1-1.2 3.3-.301.899.602 1.2 2.099.297 3.299l-.297.598-.598.603-.602.602-.301.899-.598.598-.302.301c-.899 1.2-2.099 1.497-3.299.602-1.2-.602-1.2-2.099-.602-3.303l.301-.302.602-.895.301-.602.598-.602.598-.895.602-.602zm-10.796 16.201c.598-1.205 2.099-1.803 3.295-.904 1.204.602 1.505 2.1.903 3.003l-.301.598-.602.899-.297.602-.301.895-.598.602-.301.602c-.602 1.196-1.798 1.497-2.999.899-1.2-.598-1.802-2.103-1.2-2.998l.301-.602.598-.899.301-.598.598-.903.302-.598.301-.598zm-8.397 17.094c.598-1.2 1.798-1.798 2.994-1.2 1.204.297 1.802 1.798 1.501 2.998l-.297.602-.301.899-.301.899-.301.602-.301.896-.297.602c-.301 1.2-1.802 1.8-2.998 1.2-1.204-.301-1.802-1.802-1.501-2.998l.297-.602.301-.598.301-.899.301-.903.301-.899.301-.599zm-6.006 18.295c.301-1.2 1.506-2.1 2.702-1.799 1.501.297 2.099 1.799 1.798 2.998l-.297.904v.896l-.301.902-.297.899v.899c-.301 1.2-1.802 2.1-3.003 1.799-1.196-.302-2.099-1.497-1.798-2.697v-.301l.301-.899.301-.899v-.898l.297-.904.297-.9zm-3.595 18.896c.301-1.199 1.2-2.099 2.701-2.099 1.196.301 2.1 1.2 2.1 2.701l-.302.598v2.697l-.301.903v.301c0 1.497-1.196 2.396-2.4 2.099-1.497 0-2.4-1.204-2.4-2.399l.301-.302v-3.001l.301-.895v-.603zm-.9 19.197c0-1.199.899-2.399 2.099-2.399 1.501 0 2.396.898 2.396 2.399v.899l.301.9V314.187c0 1.497-.895 2.396-2.4 2.697-1.196 0-2.396-1.2-2.396-2.399v-4.796zm1.501 19.195c-.301-1.199.598-2.399 1.798-2.696 1.497-.302 2.702.598 2.702 2.099l.297.598v.899l.301.903v.898l.297.899v.301c.301 1.2-.598 2.4-1.799 2.697-1.497.302-2.701-.599-2.998-1.798v-1.2l-.301-.899v-.898l-.297-.903v-.9zm3.898 18.896c-.301-1.501.302-2.697 1.799-2.998 1.2-.301 2.4.301 2.701 1.497l.301.603.301.898v.604l.297.898.301.899.297.598c.301 1.2-.297 2.701-1.497 3.002-1.2.297-2.701-.301-3.002-1.501l-.297-.598-.301-.903-.297-.898v-.899l-.301-.899-.302-.303zm6.599 17.998c-.602-1.199 0-2.7 1.2-3.299 1.2-.301 2.697 0 2.998 1.2l.301.899.602.598.297.903.301.598.297.899.301.602c.603.899 0 2.396-1.196 2.998-1.204.598-2.4 0-3.002-1.2l-.301-.301-.301-.899-.598-.898-.297-.603-.301-.898-.301-.599zm8.999 17.095c-.903-1.2-.301-2.697.598-3.299 1.2-.599 2.701-.297 3.299.602l.301.599.602.898.297.603.598.598.301.899.301.602c.899.899.602 2.401-.602 2.999-1.196.899-2.396.602-3.295-.598l-.301-.603-.602-.598-.301-.9-.598-.602-.297-.599-.301-.601zm11.098 15.599c-.904-.9-.904-2.401.301-3.301.895-.898 2.396-.598 3.295.302l.301.301.602.898.301.599.598.603.598.599.602.602c.899.899.598 2.396-.301 3.299-.899.899-2.4.899-3.299-.301l-.598-.602-.602-.599-.602-.602-.598-.599-.297-.898-.301-.301zm12.896 14.095c-.899-.899-.899-2.397 0-3.3a2.355 2.355 0 0 1 3.299 0h.301l.598.602.602.599.598.603.598.598.602.603c1.2.899 1.2 2.396.301 3.299-.903.899-2.4 1.2-3.299.297l-.899-.598-.602-.603-.602-.598-.598-.598-.598-.603-.301-.301zm14.694 12.298c-.895-.898-1.196-2.4-.297-3.3.598-1.2 2.099-1.2 3.299-.598l.602.598.895.603.602.297.602.603.895.301v.298c1.204.602 1.506 2.099.903 3.299-.903 1.2-2.4 1.501-3.299.602h-.301l-.899-.602-.602-.599-.598-.301-.899-.598-.602-.603h-.301zm16.501 10.198c-1.2-.598-1.501-2.099-.903-3.299.602-1.2 1.802-1.501 3.002-.899l.899.298.598.602.904.301.598.297.899.603h.301c1.2.598 1.798 2.099 1.2 3.3-.598 1.2-2.099 1.497-3.3.899h-.301l-.899-.599-.598-.301-.903-.301-.598-.598-.899-.303zm17.396 7.8c-1.201-.302-1.799-1.799-1.201-2.998.301-1.2 1.803-1.803 2.999-1.2l.903.297.598.301.899.301.903.302h.598l.297.297c1.204.301 2.099 1.802 1.501 3.002-.297 1.196-1.798 1.798-2.998 1.497l-.301-.301-.602-.298h-.895l-.903-.301-.899-.301-.598-.297-.301-.301zm18.595 5.7c-1.501-.302-2.099-1.503-1.802-3.004.301-1.199 1.505-2.099 2.701-1.798l.301.301h.899l.899.298h.903l.895.301.602.301c1.502 0 2.1 1.501 2.1 2.702-.301 1.196-1.497 2.099-3 1.798h-.598l-.903-.301-.899-.301h-.899l-.899-.297h-.3zm18.898 2.999c-1.201-.302-2.401-1.2-2.1-2.701 0-1.196 1.2-2.101 2.401-2.101h1.196l.903.301h2.701c1.196 0 2.099 1.201 2.099 2.401 0 1.501-1.204 2.4-2.4 2.4h-1.802l-.899-.301h-2.099zm19.193.3c-1.196 0-2.4-.899-2.4-2.1 0-1.501.903-2.4 2.103-2.4l.598-.302h4.198c1.2-.301 2.401.899 2.401 2.101.301 1.2-.899 2.4-2.1 2.4l-.598.301h-4.202zm19.199-2.099c-1.502.297-2.698-.602-2.698-1.803-.302-1.2.598-2.4 1.799-2.697h.301l.899-.301h.898l.899-.301.899-.301h.602c1.2-.298 2.697.602 2.998 1.802 0 1.2-.598 2.401-2.099 2.698l-.599.301-.902.301h-.899l-.899.301h-1.199zm18.594-4.5c-1.2.297-2.697-.301-2.998-1.501s.301-2.697 1.501-2.998l.899-.301.598-.301.899-.297h.902l.599-.302.602-.301c1.196-.301 2.396.301 2.999 1.501.301 1.2-.301 2.4-1.502 2.998l-.301.301h-.899l-.898.298-.899.301-.898.301-.604.301zm17.998-6.899c-1.2.301-2.702 0-3.3-1.2-.602-1.2 0-2.698 1.2-3.301l.598-.301.9-.297.903-.301.598-.603.899-.297.301-.301c1.2-.602 2.399 0 2.998 1.2.602 1.2.301 2.401-.899 2.999l-.301.301-.899.301-.598.599-.899.301-.902.297-.599.603zm16.798-9.597c-1.2.899-2.701.598-3.299-.602-.903-1.2-.603-2.697.598-3.3l.602-.301.899-.598.598-.599.603-.301.898-.603.302-.297c.898-.603 2.396-.302 3.299.598.598 1.201.297 2.702-.603 3.3l-.598.301-.602.599-.599.602-.898.297-.603.603-.597.301zm15.296-11.4c-.899.899-2.4.599-3.299-.301-.899-.898-.899-2.4.301-3.299l.297-.598.603-.302.598-.598.899-.603.602-.598.301-.301c.899-.9 2.396-.9 3.3 0 .898.898.898 2.4 0 3.299l-.603.598-.598.603-.603.598-.598.603-.603.301-.597.598zm13.795-13.498c-.898.899-2.399 1.2-3.596.301a2.347 2.347 0 0 1 0-3.299l.297-.602.603-.599.598-.598.301-.602.599-.599.602-.603c.899-1.2 2.4-1.2 3.299-.297.899.899 1.201 2.396.301 3.296l-.602.602-.598.599-.603.602-.297.899-.602.602-.302.298zm11.7-15.296c-.602 1.2-2.099 1.501-3.299.898-1.2-.898-1.2-2.399-.602-3.299l.301-.297.301-.904.598-.598.302-.602.598-.899.301-.598c.899-1.2 2.4-1.501 3.3-.899 1.199.598 1.501 2.099.898 3.299l-.598.9-.603.598-.297.899-.602.602-.302.899h-.296zm9.598-16.497c-.301 1.2-1.798 1.799-2.998 1.2s-1.802-2.1-1.2-3.3l.301-.301.297-.598.302-.899.301-.602.598-.899.301-.598v-.302c.599-1.199 1.799-1.802 2.998-1.199 1.2.598 1.803 2.099 1.2 3.299l-.301.898-.297.899-.603.602-.301.899-.297.598-.301.303zm7.498-17.696c-.301 1.199-1.799 1.798-2.999 1.501-1.2-.302-1.798-1.803-1.501-3.002l.301-.298.301-.898v-.903l.297-.598.302-.899.301-.898c.301-1.201 1.798-1.804 2.999-1.502 1.2.301 1.802 1.799 1.501 2.999l-.301.898-.302.903-.297.598-.301.899v.898l-.301.302zm5.101-18.596c-.301 1.2-1.501 2.099-2.7 1.798-1.502 0-2.4-1.497-2.1-2.698l.301-.602v-.899l.297-.898v-.899l.302-.898v-.302c.301-1.199 1.501-2.099 2.701-2.099 1.199.301 2.099 1.497 2.099 2.697l-.301.602v.899l-.301.898v.899l-.298.903v.599zm2.396-18.897c0 1.2-1.2 2.1-2.396 2.1-1.501 0-2.399-1.2-2.399-2.4V315.09l.301-.899v-2.399c0-1.201 1.196-2.401 2.396-2.401 1.199.301 2.399 1.2 2.399 2.698v.301l-.301.899V316.887zm0-19.495c0 1.498-.899 2.702-2.396 2.702-1.199 0-2.399-.903-2.399-2.104v-.898l-.301-.899v-2.998c-.302-1.204.602-2.399 2.099-2.701 1.2 0 2.4.899 2.4 2.1v.301l.301.899v2.997l.296.601zm-2.697-18.897c.301 1.2-.602 2.4-1.798 2.697-1.2.301-2.701-.598-3.002-1.798v-.603l-.301-.895v-.903l-.298-.598-.301-.899v-.602c-.302-1.196.599-2.401 1.798-2.702 1.2-.598 2.4.301 2.701 1.506l.302.598v.899l.297.899.301.898v.903l.301.6zm-5.101-18.596c.301 1.195-.298 2.702-1.498 2.999-1.2.598-2.701 0-2.998-1.501l-.301-.9-.302-.598-.301-.903-.297-.896-.301-.602v-.301c-.603-1.196 0-2.701 1.2-2.998 1.199-.598 2.696 0 2.998 1.2l.301.301.301.899.297.598.302.902.301.896.298.904zm-7.498-17.696c.602 1.2 0 2.701-1.2 3.299-1.2.598-2.697 0-3.299-1.2l-.298-.899-.302-.598-.602-.903-.297-.602-.302-.895h-.301c-.598-1.204-.297-2.701.899-3.303 1.201-.598 2.702-.297 3.3.903v.301l.602.598.302.899.297.602.602.895.302.903h.297zm-9.898-16.496c.602 1.2.301 2.697-.598 3.299-1.2.899-2.701.598-3.3-.602h-.301l-.301-.598-.599-.899-.301-.602-.598-.598-.603-.899c-.899-1.205-.598-2.702.302-3.304 1.199-.895 2.701-.598 3.299.301l.301.301.598.602.302.895.598.603.603.602.301.899h.297zm-11.997-15.001c.898.904.602 2.401-.301 3.304-.899.895-2.396.895-3.3 0l-.598-.602-.598-.602-.603-.598-.301-.598-.598-.603-.603-.602c-.9-.895-.598-2.396.301-3.295a2.349 2.349 0 0 1 3.3 0l.301.598.598.598.603.602.598.602.602.598.599.598zm-13.796-13.197c.899.602.899 2.1.298 3.304-.899.895-2.396.895-3.597.297l-.301-.598-.602-.301-.599-.602-.898-.598-.604-.599-.598-.301c-.899-.903-1.2-2.4-.3-3.299.897-1.2 2.399-1.2 3.299-.598l.602.598.599.598.898.602.603.301.598.598.602.598zm-15.597-11.399c1.2.603 1.497 2.104.598 3.304-.598.899-2.099 1.196-2.998.598l-.602-.297-.6-.301-.898-.602-.603-.301-.598-.598-.899-.297c-.898-.602-1.501-2.104-.602-3.304.602-1.196 2.099-1.497 3.002-.899l.9.598.598.301.899.602.602.301.899.598.302.297zm-16.798-9.295c1.2.598 1.502 1.802 1.2 2.998-.602 1.204-2.1 1.802-3.3 1.204h-.301l-.899-.602-.598-.301-.903-.301-.898-.301-.599-.297c-1.2-.598-1.802-1.802-1.2-2.998.302-1.2 1.799-1.798 2.998-1.501l.899.301.603.598.898.301.899.301.602.301.599.297zm-17.998-6.897c1.2.297 1.803 1.798 1.501 2.994-.301 1.205-1.798 1.803-2.998 1.506l-.602-.301h-.599l-.898-.301-.903-.302-.898-.301h-.599c-1.201-.301-1.803-1.798-1.502-2.998s1.502-2.099 2.702-1.798l.899.297.598.301.903.301h.898l.899.301.599.301zm-18.596-4.499c1.201.297 2.1 1.497 1.803 2.697-.301 1.2-1.501 2.099-2.702 2.099h-.301l-.899-.297h-.598l-.903-.301h-.898l-.899-.301c-1.501 0-2.4-1.2-2.099-2.4 0-1.497 1.199-2.4 2.7-2.099h.899l.899.301h.898l.899.301h1.201z"/><path fill="#4E5A62" d="M4.198 405.969h503.604c2.396 0 4.198 1.802 4.198 3.9v58.786c0 2.104-1.802 3.901-4.198 3.901H4.198c-2.4 0-4.198-1.798-4.198-3.901v-58.786c0-2.098 1.798-3.9 4.198-3.9z"/><path fill="#FFCC29" d="M4.198 409.869h503.604v58.786H4.198z"/><path fill="#373435" d="M14.096 409.869h1.501v26.994h-1.501z"/><path fill="#373435" d="M22.798 409.869h1.497v18.597h-1.497z"/><path fill="#373435" d="M32.692 409.869h1.501v26.994h-1.501z"/><path fill="#373435" d="M41.39 409.869h1.502v18.597H41.39z"/><path fill="#373435" d="M51.292 409.869h1.497v26.994h-1.497z"/><path fill="#373435" d="M59.99 409.869h1.497v18.597H59.99z"/><path fill="#373435" d="M69.884 409.869h1.505v26.994h-1.505z"/><path fill="#373435" d="M78.585 409.869h1.502v18.597h-1.502z"/><path fill="#373435" d="M88.483 409.869h1.497v26.994h-1.497z"/><path fill="#373435" d="M97.182 409.869h1.497v18.597h-1.497z"/><path fill="#373435" d="M107.08 409.869h1.501v26.994h-1.501z"/><path fill="#373435" d="M115.777 409.869h1.502v18.597h-1.502z"/><path fill="#373435" d="M125.675 409.869h1.497v26.994h-1.497z"/><path fill="#373435" d="M134.373 409.869h1.501v18.597h-1.501z"/><path fill="#373435" d="M144.271 409.869h1.501v26.994h-1.501z"/><path fill="#373435" d="M152.972 409.869h1.498v18.597h-1.498z"/><path fill="#373435" d="M162.867 409.869h1.501v26.994h-1.501z"/><path fill="#373435" d="M171.564 409.869h1.502v18.597h-1.502z"/><path fill="#373435" d="M181.467 409.869h1.497v26.994h-1.497z"/><path fill="#373435" d="M190.164 409.869h1.497v18.597h-1.497z"/><path fill="#373435" d="M200.058 409.869h1.501v26.994h-1.501z"/><path fill="#373435" d="M208.756 409.869h1.505v18.597h-1.505z"/><path fill="#373435" d="M218.658 409.869h1.497v26.994h-1.497z"/><path fill="#373435" d="M227.355 409.869h1.499v18.597h-1.499z"/><path fill="#373435" d="M237.254 409.869h1.501v26.994h-1.501z"/><path fill="#373435" d="M245.952 409.869h1.501v18.597h-1.501z"/><path fill="#373435" d="M255.85 409.869h1.501v26.994h-1.501z"/><path fill="#373435" d="M264.547 409.869h1.501v18.597h-1.501z"/><path fill="#373435" d="M274.445 409.869h1.501v26.994h-1.501z"/><path fill="#373435" d="M283.144 409.869h1.501v18.597h-1.501z"/><path fill="#373435" d="M293.042 409.869h1.501v26.994h-1.501z"/><path fill="#373435" d="M301.738 409.869h1.502v18.597h-1.502z"/><path fill="#373435" d="M311.637 409.869h1.501v26.994h-1.501z"/><path fill="#373435" d="M320.339 409.869h1.497v18.597h-1.497z"/><path fill="#373435" d="M330.237 409.869h1.497v26.994h-1.497z"/><path fill="#373435" d="M338.935 409.869h1.497v18.597h-1.497z"/><path fill="#373435" d="M349.13 409.869h1.501v26.994h-1.501z"/><path fill="#373435" d="M357.53 409.869h1.497v18.597h-1.497z"/><path fill="#373435" d="M367.729 409.869h1.498v26.994h-1.498z"/><path fill="#373435" d="M376.126 409.869h1.501v18.597h-1.501z"/><path fill="#373435" d="M386.325 409.869h1.497v26.994h-1.497z"/><path fill="#373435" d="M394.723 409.869h1.501v18.597h-1.501z"/><path fill="#373435" d="M404.921 409.869h1.497v26.994h-1.497z"/><path fill="#373435" d="M413.317 409.869h1.501v18.597h-1.501z"/><path fill="#373435" d="M423.517 409.869h1.501v26.994h-1.501z"/><path fill="#373435" d="M431.914 409.869h1.501v18.597h-1.501z"/><path fill="#373435" d="M442.113 409.869h1.501v26.994h-1.501z"/><path fill="#373435" d="M450.509 409.869h1.501v18.597h-1.501z"/><path fill="#373435" d="M460.708 409.869h1.501v26.994h-1.501z"/><path fill="#373435" d="M469.109 409.869h1.497v18.597h-1.497z"/><path fill="#373435" d="M479.304 409.869h1.502v26.994h-1.502z"/><path fill="#373435" d="M487.705 409.869h1.496v18.597h-1.496z"/><path fill="#373435" d="M497.899 409.869h1.501v26.994h-1.501z"/><g><path fill="#3B4958" d="M236.953 67.937h10.199v27.594h-10.199z"/><path fill="#415162" d="M236.953 67.937h7.799V95.23h-7.799z"/><path fill="#243241" d="M242.05 43.642c6.599 0 12.002 5.398 12.002 11.997v19.796c0 6.9-5.403 12.298-12.002 12.298-6.598 0-12.293-5.398-12.293-12.298V55.639c0-6.599 5.695-11.997 12.293-11.997z"/><path fill="#243241" d="M242.05 43.642c6.599 0 12.002 5.398 12.002 11.997v16.196c0 6.599-5.403 12.001-12.002 12.001-6.598 0-12.293-5.403-12.293-12.001V55.639c0-6.599 5.695-11.997 12.293-11.997z"/><path fill="#283848" d="M251.952 79.633c-2.4 2.701-5.402 4.203-8.999 4.203-6.9 0-12.298-5.403-12.298-12.001V55.639c0-1.802.598-3.901 1.501-5.699 2.099-2.4 5.394-4.199 8.999-4.199 6.895 0 12.293 5.7 12.293 12.298v15.895c.001 2.099-.597 4.198-1.496 5.699z"/><path fill="#1A2530" d="M229.154 52.34h25.797c.598 0 .899.602.899.899 0 .598-.301.899-.899.899h-25.797c-.598 0-.899-.301-.899-.899-.001-.297.301-.899.899-.899zm0 26.695h25.797c.598 0 .899.301.899.899 0 .598-.301.899-.899.899h-25.797c-.598 0-.899-.301-.899-.899-.001-.598.301-.899.899-.899zm0-3.299h25.797c.598 0 .899.297.899.899 0 .301-.301.899-.899.899h-25.797c-.598 0-.899-.598-.899-.899-.001-.602.301-.899.899-.899zm0-3.6h25.797c.598 0 .899.602.899 1.2 0 .297-.301.899-.899.899h-25.797c-.598 0-.899-.602-.899-.899-.001-.598.301-1.2.899-1.2zm0-3.3h25.797c.598 0 .899.598.899 1.2 0 .301-.301.899-.899.899h-25.797c-.598 0-.899-.598-.899-.899-.001-.602.301-1.2.899-1.2zm0-3.299h25.797c.598 0 .899.602.899 1.2 0 .297-.301.899-.899.899h-25.797c-.598 0-.899-.602-.899-.899-.001-.598.301-1.2.899-1.2zm0-3.3h25.797c.598 0 .899.598.899.899 0 .602-.301 1.2-.899 1.2h-25.797c-.598 0-.899-.598-.899-1.2-.001-.301.301-.899.899-.899zm0-3.299h25.797c.598 0 .899.602.899.899 0 .598-.301 1.2-.899 1.2h-25.797c-.598 0-.899-.602-.899-1.2-.001-.296.301-.899.899-.899zm0-3.299h25.797c.598 0 .899.598.899.899 0 .602-.301 1.2-.899 1.2h-25.797c-.598 0-.899-.598-.899-1.2-.001-.301.301-.899.899-.899z"/><path fill="#202D3B" d="M229.154 52.34h26.098c0 .301.297.301.297.602 0 .598-.598.895-1.201.895h-25.792c-.301 0-.301-.297-.301-.598-.001-.297.301-.899.899-.899zm26.098 26.695s.297.301.297.598c0 .598-.598.899-1.201.899h-25.792c-.301-.301-.301-.301-.301-.598 0-.598.301-.899.899-.899h26.098zm0-3.299s.297.297.297.598-.598.904-1.201.904h-25.792c-.301-.301-.301-.603-.301-.603 0-.602.301-.899.899-.899h26.098zm0-3.299s.297.301.297.598c0 .301-.598.899-1.201.899h-25.792c-.301-.301-.301-.598-.301-.598 0-.598.301-1.2.899-1.2h25.797l.301.301zm0-3.3s.297.297.297.598-.598.904-1.201.904h-25.792c-.301-.302-.301-.603-.301-.603 0-.602.301-1.2.899-1.2h25.797s.301 0 .301.301zm0-3.6c0 .301.297.602.297.602 0 .598-.598 1.196-1.201 1.196h-25.792c-.301-.301-.301-.598-.301-.598 0-.598.301-1.2.899-1.2h26.098zm0-3.3c0 .301.297.598.297.598 0 .602-.598 1.205-1.201 1.205h-25.792v-.302c-.301 0-.301-.301-.301-.602s.301-.899.899-.899h26.098zm0-3.299c0 .301.297.602.297.602 0 .598-.598 1.196-1.201 1.196h-25.792v-.301c-.301 0-.301-.297-.301-.598 0-.297.301-.899.899-.899h26.098zm0-3.299c0 .301.297.598.297.598 0 .602-.598.903-1.201.903h-25.792c-.301 0-.301-.301-.301-.602s.301-.899.899-.899h26.098z"/><path fill="#283848" d="M366.529 142.32c-15 54.888-65.088 95.083-124.479 95.083-59.387 0-109.475-40.195-124.47-95.083h17.094c14.397 45.593 56.987 78.886 107.375 78.886 50.394 0 92.983-33.293 107.381-78.886h17.099z"/><path fill="#2C3E50" d="M121.176 142.32h13.499c14.397 45.593 56.987 78.886 107.375 78.886 50.394 0 92.983-33.293 107.381-78.886h13.498c-18.294 48.892-65.689 83.683-120.879 83.683-55.189 0-102.576-34.791-120.874-83.683z"/><path fill="#FC9" d="M95.681 346.279l20.397 12.6-26.399 21.895z"/><path fill="#FC9" d="M95.681 346.279l20.397 12.6-2.103 1.798c-1.497.603-4.198 1.201-5.695.904-2.4-.302-2.099-5.403-3.299-6.6-1.502-1.501-6.001 1.196-7.498.899-.903-.302-1.802-3.901-2.099-6.899l.297-2.702z"/><path fill="#4D4D4D" d="M95.981 375.677l-6.302 5.097 1.204-7.799z"/><path fill="#E6B800" d="M95.681 346.279l131.073-227.05c6.599-11.7 27.595.297 20.699 11.993L116.078 358.879c-3.299-.599-6.598 1.798-7.497 1.199-1.204-.598-.602-5.698-3.002-6.898-2.401-1.497-7.197 2.399-7.498.898-.297-1.497-1.201-4.499-2.4-7.799z"/><path fill="#FC0" d="M107.678 357.378c-.301-1.497-.899-3.597-2.099-4.198-1.196-.899-3.296 0-5.098.602l124.475-215.66 6.9 4.199-124.178 215.057z"/><path fill="#E6B800" d="M95.681 346.279l122.376-212.055 6.899 3.897-124.476 215.66c-1.2.599-2.099.899-2.4.297-.296-1.497-1.2-4.499-2.399-7.799z"/><path fill="#CFA600" d="M218.057 134.225l3.599-6.298 20.997 11.993-3.898 6.302z"/><path fill="#C30" d="M221.656 127.927l5.097-8.698c6.9-12.001 27.595.297 20.699 11.993l-4.8 8.698-20.996-11.993z"/><path fill="#283848" d="M261.248 122.224l142.774 246.854-2.702 20.996-19.795-8.1-143.673-248.653z"/><path fill="#2C3E50" d="M261.248 122.224l142.774 246.854-2.702 20.996-150.869-262.749z"/><path fill="#ECF0F1" d="M242.05 93.729c14.699 0 26.399 11.7 26.399 26.395 0 14.699-11.7 26.395-26.399 26.395-14.694 0-26.395-11.696-26.395-26.395 0-14.694 11.7-26.395 26.395-26.395z"/><path fill="#BFC2C3" d="M242.05 96.431c13.202 0 23.697 10.496 23.697 23.693s-10.495 23.697-23.697 23.697c-13.196 0-23.692-10.5-23.692-23.697s10.496-23.693 23.692-23.693z"/><path fill="#ACAFB0" d="M242.05 104.828c8.401 0 15.301 6.899 15.301 15.296 0 8.401-6.9 15.296-15.301 15.296-8.396 0-15.296-6.896-15.296-15.296-.001-8.397 6.9-15.296 15.296-15.296z"/><path fill="#717373" d="M242.05 114.73a5.374 5.374 0 0 1 5.403 5.394c0 3.002-2.4 5.402-5.403 5.402a5.374 5.374 0 0 1-5.394-5.402 5.37 5.37 0 0 1 5.394-5.394z"/></g><path fill="#4E5A62" d="M407.618 366.979L320.339 216.11c24.296-17.697 41.987-43.494 50.088-72.585.301-1.204 0-2.701-.598-3.604-.903-1.197-2.1-1.799-3.3-1.799H349.43c-1.798 0-3.299 1.2-3.897 3.002a110.981 110.981 0 0 1-37.492 53.387l-37.195-64.184c1.199-3.304 1.802-6.599 1.802-10.203 0-13.494-8.999-25.19-21.599-29.092v-2.099c1.802-.899 3.299-2.4 4.203-3.901 3.897-.301 5.398-3.897 4.495-6.899.301-.895.301-2.1 0-3.296.301-1.204.301-2.099 0-3.303.301-1.197.301-2.396 0-3.295.301-1.204.301-2.4 0-3.304.301-1.196.301-2.396 0-3.295.301-1.204.301-2.4 0-3.304.301-1.196.301-2.396 0-3.295.602-2.701-.297-5.7-2.998-6.599-.899-1.501-2.401-3.304-3.601-4.5v-.301c-2.099-1.798-5.695-3.6-8.396-3.897l-2.998-.301h-.302c-2.4 0-3.6.598-5.398 1.196-.301 0-.602.301-.602.301-3.596 1.501-6.298 4.198-8.096 7.502-.602.301-1.501.899-2.099 1.497-1.2 1.501-1.501 3.002-.903 4.5v.602c-.297.899-.297 2.099 0 3.295-.297.903-.297 2.1 0 3.304-.297.899-.297 2.099 0 3.295-.297.903-.297 2.1 0 3.304-.297.899-.297 1.798 0 2.999v.297c-.297 1.204-.297 2.099 0 3.303-.297 1.196-.297 2.401 0 3.296-.598 1.501-.297 3.303.602 4.499 1.2 1.802 2.4 2.1 3.6 2.4 1.201 1.501 2.698 3.002 4.199 3.901v2.099c-12.6 3.901-21.297 15.598-21.297 29.092 0 4.203.903 8.698 2.701 12.599l-36.296 62.988c-18.591-13.498-32.391-32.692-39.291-54.587-.598-1.802-2.099-3.002-3.897-3.002H117.58c-1.205 0-2.401.602-3.304 1.799-.598.903-.899 2.4-.598 3.604 8.1 29.689 26.395 55.788 51.589 73.781L92.08 344.181c-.296.301-.296.902-.296 1.2l-6.302 34.795c-.297 1.798.602 3.299 2.099 4.198 1.501.899 3.303.899 4.499-.301l26.696-21.895c.301-.301.602-.598.903-1.2l74.083-128.377c15.296 6.001 31.796 8.999 48.289 8.999 16.501 0 32.997-3.295 48.294-9.296l87.58 151.769c.603.898 1.201 1.502 2.1 1.803l19.499 8.095c1.2.603 2.697.302 3.596-.301 1.201-.598 2.104-1.798 2.104-2.998l2.696-20.996c.301-.9-.001-1.798-.302-2.697zm-6.298 23.095l-19.795-8.101-89.383-154.766c-15.297 6.598-32.396 10.195-50.093 10.195-17.696 0-34.49-3.597-50.087-10.195l-75.885 131.671-2.103 1.798-17.993 15-6.302 5.098 1.204-7.8 4.5-23.993.297-2.702 75.286-130.17c-25.796-17.098-44.991-43.197-53.387-73.789h17.095c7.799 24.596 23.693 45.295 44.393 59.388l38.99-67.483.903-1.501c-2.099-3.6-3.304-8.1-3.304-12.599 0-12.896 9.3-23.693 21.297-26.094v-7.498c-2.396-1.2-4.499-2.998-6-5.699-.895 0-2.099.301-2.698-.301-.297-.598 0-1.497.899-1.497h1.201c0-.602-.297-.903-.297-1.501-.602 0-1.204 0-1.803-.297-.297-.603 0-1.501.899-1.501h.603v-1.501c-.603 0-.903 0-1.502-.602-.297-.297 0-1.497.899-1.497h.603v-1.201c-.603 0-1.201 0-1.502-.899-.297-.602.301-1.2.899-1.2h.603v-1.2c-.603 0-.903 0-1.502-.602-.297-.598 0-1.497.899-1.497h.603v-1.201c-.603 0-.903 0-1.502-.598-.297-.602 0-1.501.899-1.501h.603v-1.2c-.603 0-.903 0-1.502-.602-.297-.598 0-1.497.899-1.497h.603v-1.201c-.603 0-.903 0-1.502-.598-.297-.602 0-1.501.899-1.501h.603c0-.297.301-.899.301-1.501-.602 0-1.502.301-1.803-.598-.297-1.502 1.502-1.2 2.1-1.2.899-3.3 3.6-6.298 6.598-7.498.598-.301 2.099-1.2 4.499-1.2l2.999.301c1.798 0 4.499 1.798 5.699 2.999h.301c.899.899 2.697 3.6 2.998 4.796l.301.603h1.201c1.2.301 1.2 1.798 0 1.798h-.899v1.501h.899c1.2.301 1.2 2.099 0 2.099h-.899v1.201h.899c1.2.301 1.2 2.099 0 2.099h-.899v1.2h.899c1.2.301 1.2 2.099 0 2.099h-.899v1.201h.899c1.2.301 1.2 2.099 0 2.099h-.899v1.2h.899c1.2.301 1.2 2.099 0 2.099h-.899v1.201l.899.301c1.2 0 1.2 1.798 0 1.798h-.899v1.501h.899c1.2 0 1.2 1.798 0 1.798h-.899c0 .598-.302.899-.302 1.501h1.201c1.2 0 1.2 1.798 0 1.798h-2.1c-1.2 2.701-3.299 4.5-5.699 5.699v7.498c11.998 2.401 21.297 13.197 21.297 26.094 0 3.604-.903 7.201-2.104 10.5l40.194 70.189c20.096-14.1 35.394-34.499 42.891-58.493h17.099c-8.1 29.994-26.696 55.49-51.594 72.585l89.087 154.173-2.702 20.994z"/><path fill="#4E5A62" d="M242.05 146.519h2.401l1.2-.297 16.797 29.092 21.594 37.793s-16.793 7.798-41.992 8.099c-25.49-.301-41.992-8.099-41.992-8.099l21.598-37.793 16.797-29.092s.899.297 1.196.297H242.05zm-1.196 4.202l-34.794 60.287c2.4.603 4.499 1.502 6.598 1.799 9.597 2.701 19.5 3.901 29.393 3.901 9.902 0 19.8-1.2 29.397-3.901 2.099-.598 4.198-1.196 6.297-1.799l-34.489-60.287h-2.402z"/></g><metadata><rdf:RDF xmlns:rdf="http://www.w3.org/1999/02/22-rdf-syntax-ns#" xmlns:rdfs="http://www.w3.org/2000/01/rdf-schema#" xmlns:dc="http://purl.org/dc/elements/1.1/"><rdf:Description about="https://iconscout.com/legal#licenses" dc:title="precision" dc:description="precision" dc:publisher="Iconscout" dc:date="2017-09-22" dc:format="image/svg+xml" dc:language="en"><dc:creator><rdf:Bag><rdf:li>Graphiqa Stock</rdf:li></rdf:Bag></dc:creator></rdf:Description></rdf:RDF></metadata></svg>