<svg xmlns="http://www.w3.org/2000/svg" enable-background="new 0 0 110 110" viewBox="0 0 110 110"><circle cx="55" cy="55" r="50" fill="#ededed"/><circle cx="55.02" cy="55" r="40.416" fill="#dbd8dd"/><path fill="#4abba4" d="M93.1180038 57.6908569c-.0950317-1.9486237-1.2915344-3.65242-2.5035629-5.1819382-1.2120361-1.5289917-2.5277939-3.0901031-2.938736-4.9976578 2.1030273.3780365 4.0741577-2.2055588 3.1535492-4.1341743-.5333557.933506-2.141983.4069939-2.4793472-.6133881-.3374939-1.0209084.1332092-2.1134224.579689-3.091156.4467468-.9777336.8837509-2.0960464.4857101-3.0943146-.6383972-1.6021767-2.7915726-1.7269592-4.5049744-1.9222946-1.7131424-.1958656-3.8199768-1.5347862-3.1546021-3.1253796.0190887.0084229.0380402.0168476.0571289.0247459 2.1314545.8992825 3.5985794-2.2250423 1.6228409-3.4281235-1.8517456-1.127264-3.4826126-2.8847618-5.2632828-4.1941986-2.7476044-2.0207558-6.1949463-3.050087-9.6013489-2.9153004-.4758377-.8682194-1.1410828-1.6311359-1.9392776-2.2197762-.0931931-.3833008-.1432114-.7808189-.1271515-1.2215099-.0675278.3174877-.2013931.6160202-.3675079.8971767-.5699463-.3485508-1.1842575-.6233902-1.8338394-.7839756-1.3948669-.3438129-2.8921356-.1942844-4.2149963.3617134-.3139343-.3696117-.6079903-.7565994-.8842812-1.1362133-.0450134.5591564-.0900307 1.1188393-.1350479 1.6779938-.3422356.2190304-.6714363.4585934-.9669418.7392254-.2787895.2648354-.5720558.572319-.9556198.6018028-.8139877.0621281-1.1040955-1.0161686-1.4708138-1.745388-.7737083-1.5389977-3.1702614-1.9054489-4.3682098-.6686726-.5531006.5717926-.8210983 1.3336563-1.1179161 2.0813046-.1301804.0726585-.2390404.1337337-.3692169.2069206-.8333397-.1332092-1.9133492-.235878-2.4266968.4654369-.2987976.4085732-.2877388.9387703-.2930069 1.4568596-1.4464607-.8792763-.3282776-3.6813755-2.1307945-4.4542961-.9258728-.3969898-1.9699478.1584797-2.3864174 1.0756645-.7521248 1.6564083.1168861 3.2706966.8503151 4.7644119.3613205.7360649.6919708 1.5468941.7987213 2.3508797-.5841675.1763802-1.2001839.2300854-1.8027802.0900326.5608673-1.814888.3376274-3.858284-.6019363-5.5094261-.8596611.7039471-1.702343 1.4284286-2.5497665 2.1471176-.3064308-.3585548-.8087234-.6349735-1.2628403-.8124084-1.1967621-.468071-2.6787643-.8924389-3.6605797-.0631828-.7622566.6439247-.8054314 1.6485119-.809906 2.695219-.4181824-1.0567112-1.1628036-1.9854794-2.1530418-2.5472679.1160965 1.6116543.2319279 3.223835.3477612 4.8354912.0394878.5491524.074501 1.1083088.0773964 1.6643066-.5554695.2869492-1.1841259.4022541-1.7930374.2332439-1.4415913-.4006767-2.142643-2.5162029-1.0556583-3.5450096-1.3911781.2527275-2.8199997.9682579-3.3807373 2.2666378-.5607357 1.297327.2390385 3.146965 1.6515388 3.2059345.3539486.0152683.7148724-.0763435 1.0594749.0063171 1.0119572.2448292 1.0839577 1.6211338.8307056 2.6557293-.6282616.1932297-1.2900887.1869125-1.8731995-.1426849.1669044 1.081459.0845051 2.1945038-.211132 3.2480583-.5029507.2111282-1.0625019.257988-1.557951.0410652-.4134445-.181118-.7088184-.4949188-.9529877-.867691-.0010529-.1979675-.018034-.3954124.0025005-.5923271-.118597-.0442276-.2452221-.0494919-.369875-.0663414-.2081032-.4222603-.3989639-.8645325-.6378689-1.2546768-.6047001-.9872131-2.3541698-1.5216236-2.736681-.4285812.557972.7492256 1.2294064 1.412632 1.9810028 1.9670486-.0080299.0526505-.0090828.0589714-.0171108.1116219-1.8401623.5960121-3.7636433 1.2715263-5.0000267 2.7531319-1.2609978 1.512146-1.3851223 4.1452332.2654934 5.2187958.1767769.1147766.366848.1990204.5640278.2600937.4675426 1.3589287.9050751 2.8305321 1.1628017 4.297924-.7929268.218502-1.6427193.2837906-2.4601288.2127113-.36619-.0321198-.7762127-.0737114-1.0614491.1574249-.2416706.1953392-.3148556.5275688-.3654003.8339958-.3018236 1.8322639-.3289394 3.7092819-.0805569 5.5494423.1545315 1.1446381.5153236 2.3914223 1.2854805 3.1875076.3243313.9466705 1.3795948 1.7901421 2.2379417 2.4825058 1.9138737 1.5447884 3.2122536 3.7966843 3.695591 6.204422.3059044 1.5237274 1.2881126 2.8289566 2.7423401 3.3775787.6747265.2543106 1.2850857.737648 1.6073112 1.3720932.8093815 1.5948105.3911991 3.5086823-.0442257 5.2430115-.0938511.3738251-.2300873.7992477-.5871944.9445648-.1097775.044754-.2002068.5449142-.306694.4938431.5192738 1.4800262 1.2507324 2.3861771 2.5075169 3.3044205 1.4200039 1.0382843 3.5731773 1.2262421 4.8705063.0384369-.7987213 2.4172134-.0760841 5.4357147 2.1030197 6.7519913 2.1792374 1.3168106 5.6109123.1153107 6.0186958-2.3977356.3190689 2.7989426 1.5220184 5.4909973 3.3946915 7.5954666.5935097-1.2978516 2.0652466-2.1350021 3.4841957-1.9817886.7292213.0784454 1.4448814.3911972 2.1708107.2869492 1.7395973-.2479858 2.2482109-2.4472351 2.6470451-4.1584015.3990936-1.7111588 1.9882393-3.7192841 3.508152-2.8373718 1.6192894.9387741.4533272 3.5192108 1.1491127 5.257225.9628601 2.4051132 4.5514374 1.8180466 6.8033295.5375748.2344284-.6102295.4688644-1.2209854.7032928-1.8312149.4460831.8892822 1.9137421.4449005 2.3749619-.4364777.4610977-.8819122.3856735-1.9533615.7550201-2.877388.3692169-.9240341 1.6356125-1.6495667 2.32798-.9350891.321434.3317032.3684235.8318863.5083466 1.2715302.6374741 2.0039063 3.8148422 2.4998779 5.0329285.7866058 1.1393738-1.6032333.3754044-3.7908859-.1941452-5.6736984-.5696869-1.881752-.1966553-4.7512512 1.5699234-5.6157837.5229645-.792923 1.0968628-1.6290283 1.9746857-1.9923248.8778305-.3638153 2.1244812.0210648 2.2927017.9566727.1027985.5712662-.2140274 1.1309509-.2737885 1.7085342-.1574249 1.5189896 1.5941467 2.6889038 3.1066895 2.4830322 2.1186829-.2890549 3.6492538-2.3840485 4.7956085-3.8593369 1.0826416-1.3931503 1.5262299-3.2306747.9881287-4.9113083-.815567-2.5467377-3.0492935-2.4498596-4.8702393-3.1796036-1.2565231-.5028229-2.4524918-1.8575401-1.8943939-3.0906334.5631104.9393005 2.1563339.3748779 2.5717545-.6381302.4155502-1.0130119.1426849-2.1597557.1633453-3.2543755.0335693-1.7790871.9116592-3.5234222 2.3204727-4.610672.3475037 2.4925117.494133 5.012928.4380646 7.5286064C91.7040558 61.7792244 93.2130432 59.6400032 93.1180038 57.6908569zM22.3189163 45.6142387c-.3382835.048439-.6964436.0247459-.9866848-.1521645-.6913109-.4222641-.6968384-1.4010506-1.0045853-2.1502762-.0442276-.1079369-.1126747-.2048149-.191782-.295372.843605-.2490425 1.5869083-.8571625 1.83358-1.706955C23.2037201 42.3130035 23.2129345 44.2916374 22.3189163 45.6142387zM66.5045853 17.5761719c.0435791-.2056313.0655136-.4157333.0596466-.6291866C66.5297241 17.1682625 66.5118484 17.3761272 66.5045853 17.5761719z"/><path fill="#41a38e" d="M79.4902802 63.0965614c-2.2041092-1.1978188-3.5791016-3.7708855-3.3501968-6.2686615.0350113-.3817215.1137238-.7813416.366188-1.0698738.5367813-.6139107 1.5089874-.430687 2.3121796-.2901077 1.4631805.2564125 3.1185303.1347885 4.2070999-.8761177 1.0883026-1.010376 1.1576691-3.1032639-.146637-3.8140564-1.0556564-.5749512-2.366539-.0368538-3.5568542-.2048111-1.7886963-.2516747-3.027977-2.4014244-2.3495636-4.0752068 1.4518585.2932663 3.0465317-.2948494 3.9601669-1.4605484.9137573-1.1662254 1.1038284-2.8547478.4720154-4.194725-.2524643-.534935-.6244431-1.0187988-.7813416-1.5895386-.3432846-1.2473106.3453903-2.8178978-.5537643-3.7482452-.5300598-.5480995-1.3872223-.5854797-2.1477737-.5307236-1.716301.1242561-3.4115372.5344086-4.9944992 1.2094002-1.2033386-1.2230911-.3719788-3.2491112-.4462204-4.9634342-.0755539-1.7448635-1.1993942-3.3096581-2.6067581-4.3442554-1.4076309-1.034071-3.0841827-1.6242905-4.7333527-2.19977-1.106987-.3864594-2.4001045-.7555447-3.3896866-.1268883-.2007332.1279411-.3933029.2980061-.630497.3148537-.3979111.0279045-.6726189-.3664532-.950882-.6523495-.6686707-.6865711-1.8019905-.8645325-2.6486206-.4154186-.3227539 2.1155281-.4288445 4.7423 1.3806458 5.8848305 2.1351395 1.3478737 5.3613472-.5170345 7.3226051 1.0735607.9977417.8092499 1.253891 2.2350464 2.0965729 3.2048798-.7242203.7134247-1.7335434 1.1293716-2.7501068 1.1330566-.6914444 1.1972885-.6931534 2.7631378-.0042114 3.9620056.688942 1.1988716 2.0424728 1.9854813 3.4250946 1.9907455 1.2675781.0052643 2.5760956-.5881157 3.7620621-.1405792.0477829 2.4861908-1.2058411 5.1019058-3.4687958 6.1328163-2.2628174 1.0309143-5.4104385-.0642319-6.1009598-2.453022-.2224541-.7697601-.1992874-1.6132317-.5554733-2.3308678-.3561859-.7176399-1.353138-1.2251968-1.9591522-.7007904-.2529907.218502-.3650055.5559959-.4449043.8808556-.9708862 3.9446335 1.7072182 8.4184074 5.6425056 9.4261551 1.2271652.3148537 2.7011414.2537766 3.5419769-.693943.1625671-.1832275.3011703-.3990974.5151978-.5180893.4191055-.2342987.9752274.0078964 1.2496719.4017296.2745819.3938293.3390808.892437.3956757 1.3689308.3084106 2.5951805.5290146 5.5125885-1.1304169 7.5312347-.3122253.3801422-.692894.7308006-.8400574 1.1999245-.3116913.9945831.5309906 1.9444084.8209686 2.9453087.2050781.7081604.1280746 1.4631805.0494919 2.1960831-.1501846 1.3984222-.3002472 2.7973633-.4504318 4.1957779-.031723.2959061-.0701599.6091766-.2533875.8440018-.2471924.3169632-.6826172.4022598-1.0794754.4659653-1.2962799.2074432-2.5925522.4154205-3.8886948.6228638-2.9942741.4796524-4.7496681 1.6442947-4.8110085 4.8802414-.0347481 1.8396378.6803856 4.7154465 2.6072922 5.5383911 2.4542046 1.0482864 2.7828789-1.9754791 3.8060265-3.4681396 1.7842178-2.6025543 4.5410385-.8434753 6.7168503-2.4782944 1.9367752-1.4552841.8405762-4.5832901 1.6851044-6.8536148.6406326-1.7227478 2.5855713-2.8536987 4.3998032-2.5583267 1.2553406.2048187 2.7154846.9450912 3.6509705.0837173.817543-.7529144.4185791-2.1923981-.4209442-2.9205627C81.592247 63.9142342 80.4669647 63.627285 79.4902802 63.0965614zM53.8112106 74.2912674c-.5608673-.6260223-1.4357986-.8424149-2.2555809-1.0277481-1.0906677-.2464142-2.1814728-.4922943-3.2721405-.7387009-.6556435-.1479492-1.3330002-.2969513-1.9941673-.176384-.7621269.1395264-1.4117126.6186523-2.1230316.9261398-1.6012573.6913071-3.5009117.4696503-5.0558357-.3206482-1.554924-.7902908-2.7964401-2.0976257-3.7836494-3.5355301-.1586151-.2311401-.314724-.4738617-.3661919-.7492294-.1615067-.864006.7024994-1.5247803 1.3688011-2.0976257 1.9232178-1.6553574 2.8473816-4.3916397 2.3219223-6.8736191-.5255928-2.4825058-2.4792175-4.6096191-4.9081497-5.3430481-1.1549072-.3490791-2.3843136-.4006767-3.5348759-.7634468-1.1505604-.3627663-2.2863808-1.1572723-2.5412121-2.3361359-.4568806-2.1149979 1.9795551-3.6413574 2.8367176-5.6278915.4196301-.9724693 1.3087788-5.6679077-.5804787-4.2126274-.6199703.4780731-.9350872 2.1207924-1.23283 2.8200035-.5944328 1.3957825-1.2654724 2.7552376-2.0336552 4.0646744-.5498104.9366684-1.2883759 1.9407272-2.3687801 2.0534019-.7089481.0742378-1.3963108-.2653656-2.1077614-.3059044-.924818-.0526543-1.7952747.3975143-2.6117649.8350487-.7319832.3917236-1.5501842.9034958-1.6539078 1.7274857-.0555458.4406929.1147804.8755913.2961636 1.2810059.6218109 1.3899918 1.6265297 2.8489609 3.1388054 3.0242882.9814186.114254 2.038393-.3448639 2.9313583.0779228.9166584.4343719 1.2170334 1.6527252.9623337 2.6346703-.25457.981945-.9188976 1.7954063-1.5125389 2.6178207-.2264004.3132744-.4549084.6702499-.4118652 1.0546036.0985889.8803291 1.3343143.9793129 2.2075348.8276787 1.1385841-.1979713 2.2771683-.3959389 3.4157505-.59338.4169979-.0726585.8518982-.1526909 1.1876812-.4101524.7576504-.5807457.668539-1.7432861.3890934-2.6562576-.2794476-.9129715-.6732788-1.9070282-.2912941-2.782093.2100792-.4291077.904417-.3580284 1.200449.0168495.2961636.3748779.3077469.8929672.3059044 1.3705139-.0073719 2.0428658-.015007 4.0862617-.0225086 6.1291275-.0013161.3522415-.0064507.7202759-.1709862 1.0314407-.357502.6760406-1.2912712.8087234-1.7960663 1.3826218-.9367962 1.066185.1341305 2.7015381 1.2677116 3.555542 1.1335831.8540039 2.548584 1.9080811 2.2962532 3.30439-.1104355.6112823-.5456009 1.1362152-.6048317 1.7543411-.1180687 1.2330933 1.7439423 2.0607681 2.5799103 1.1467438.3590813-.3922501.4814949-.9419327.741066-1.4063187.2595711-.4643784.799511-.8761139 1.2916679-.6739349.6640625.2722092.5251961 1.2230911.5134811 1.9407272-.0305367 1.8801804 1.5747986 3.3286133 3.0435066 4.502739.4614868-.6502457.9229774-1.3004913 1.3844643-1.9507294.4743881.8550568.2690468 1.9049225.1842804 2.8794937-.0850334.9740524.0652885 2.1350098.9179726 2.6141357.3767204.2121811.8279419.2458801 1.2596817.2221909 1.7127457-.0947723 3.3519096-1.0788269 4.2415848-2.545166.188755-.3116913.3690872-.6649857.7018433-.8129349.3567123-.1590042.767128-.02948 1.1570091-.0063171.9600983.0573883 1.8575363-.5696869 2.3916855-1.3699875.5341454-.7997742.7731819-1.755394 1.0032692-2.6894226C54.431179 76.7979965 54.6939087 75.2758484 53.8112106 74.2912674z"/><path fill="#7c2919" d="M41.4512634,24.2297077c-10.3106556,0-18.6691093,8.3584538-18.6691093,18.6689548
		c0,10.3108139,8.3584538,18.6692657,18.6691093,18.6692657s18.6691132-8.3584518,18.6691132-18.6692657
		C60.1203766,32.5881615,51.7619209,24.2297077,41.4512634,24.2297077z"/><path fill="#8e3420" d="M43.3384132 28.1394062c.0312576-.1034794.0524254-.2122402.1095047-.3040371.1901855-.3058357.7073441-.3258629.8172493-.6688309.1551628.310709-.1545868.6448669-.2245827.9850388-.0406303.1974545.0027046.4021568.0590744.5957088.0908508.3119602.2262459.627903.4810677.8294983-.1777229.1242523-.2769737.3546944-.4801445.4304924-.371563.1386223-.7246513-.3361759-1.1194763-.298933-.0999756.0094318-.1958427.052187-.2962532.0510254-.1004143-.0011616-.2136688-.0733166-.2038765-.1732578C42.5290337 29.0955753 43.1953049 28.6215763 43.3384132 28.1394062zM51.606617 43.4923706c.1021652-.0812531.2095108-.1649666.3374023-.1910934.2680969-.0547676.5086441.1530685.7544937.2732124.2568741.1255341.557663.1588135.8357658.0924683.2138138-.0510063.4340324-.1588593.6426926-.0897446.1186905.0393143.2116394.1306229.3000336.2190475.1690674.1691284.338131.3382568.5071983.5073853.1186447.1186867.2394676.240387.3127289.3913651.0968323.1995468.1011696.4296951.1036301.6514816.0073013.6583519.0079956 1.3464394-.2909698 1.9330406-.0447426.0877838-.0991859.1758003-.1836586.2265244-.0666885.0400467-.1456795.052948-.2225113.0650864-.5808105.0917702-1.1616173.1835403-1.742424.2753105-.4500389.0711098-.981636.1160431-1.2908592-.2185822-.2229385-.2412529-.2470665-.5981102-.3418198-.912632-.1131172-.3754845-.3399124-.7110443-.6216354-.9838371-.1287346-.1246529-.2735863-.2432747-.3436928-.4096489C50.1026535 44.6977386 51.2119102 43.806282 51.606617 43.4923706zM25.4788837 41.1901093c.1021652-.0812531.2095108-.1649666.3374004-.1910934.2680988-.0547676.5086441.1530685.7544918.2732124.2568741.1255341.5576649.1588135.8357697.0924683.2138119-.0510063.4340286-.1588593.6426926-.0897446.1186886.0393143.2116394.1306229.3000317.2190475.1690674.1691284.3381329.3382568.5072002.5073853.1186409.1186867.2394657.240387.3127289.3913651.0968304.1995468.1011677.4296951.1036282.6514816.0073013.6583519.0079956 1.3464394-.2909698 1.9330406-.0447407.0877838-.0991879.1758003-.1836586.2265244-.0666885.0400467-.1456776.052948-.2225132.0650864-.5808067.0917702-1.1616135.1835403-1.7424202.2753105-.4500427.0711098-.9816399.1160431-1.2908611-.2185822-.2229366-.2412529-.2470665-.5981102-.3418198-.912632-.1131172-.3754845-.3399105-.7110443-.6216335-.9838371-.1287346-.1246529-.2735882-.2432747-.3436947-.4096489C23.9749184 42.3954773 25.0841751 41.5040207 25.4788837 41.1901093zM41.6063499 48.6929207c.0714912-.0568581.1466103-.1154366.2361031-.1337204.1876068-.0383224.3559303.1071129.5279694.191185.1797485.0878448.3902321.1111336.5848427.0647087.1496162-.0356941.3037186-.1111641.4497337-.0628014.0830536.0275116.148098.091404.2099533.1532822.1183052.118351.2366142.236702.3549194.3550529.0830231.0830498.167572.1682129.2188377.2738647.0677567.1396332.0707932.3006859.0725136.455883.0051117.4606895.0055962.9421921-.2036095 1.3526764-.0313072.0614281-.0694084.1230202-.1285172.1585159-.0466652.028019-.1019402.0370483-.1557083.0455437-.4064293.0642166-.8128586.1284332-1.2192879.1926537-.3149223.0497589-.6869164.0811996-.9033012-.1529579-.156002-.1688194-.1728859-.4185371-.239193-.6386299-.079155-.2627487-.2378578-.4975662-.4349976-.6884575-.0900841-.0872269-.1914482-.1702347-.2405052-.2866554C40.5539246 49.536396 41.3301468 48.9125862 41.6063499 48.6929207zM30.5712337 46.616127c.0528793-.042057.1084385-.0853844.1746311-.0989037.1387615-.028347.2632618.0792236.3905067.141407.1329517.0649719.2886333.0821953.4325733.0478592.1106644-.0263977.2246437-.082222.3326416-.0464516.06143.0203476.1095409.0676079.1552906.1133728.0875053.0875397.1750069.1750755.2625122.2626114.061409.0614319.1239433.1244202.1618614.2025642.0501175.1032791.0523643.2223969.0536346.3371887.0037804.3407478.0041389.6968842-.1505966 1.0004959-.023159.045433-.0513382.0909882-.0950584.1172447-.0345154.0207253-.0753975.027401-.1151657.0336838-.3006134.0475006-.6012249.0949974-.9018364.1424942-.2329292.0368042-.5080719.0600624-.6681175-.1131325-.115387-.1248665-.1278763-.3095665-.176918-.4723549-.0585461-.1943436-.17593-.3680191-.3217411-.5092125-.0666313-.0645142-.1416035-.1259117-.1778889-.2120247C29.7928181 47.239994 30.3669434 46.7785988 30.5712337 46.616127zM46.3332024 42.6934853c.0519562-.237072.0499001-.488205.1442871-.7118073.0685539-.1623802.1858215-.3042717.2286758-.4752159.0860481-.3434639-.1466255-.6776848-.3659744-.9556389-.2534447-.3211784-.5473747-.6665573-.9526253-.7227669-.4927139-.068325-.9211273.3146133-1.2704773.6687546-.6012726.6095543-1.4559593 1.3111343-.9267349 2.2787781.4756393.869648 1.4300117.3283882 2.1810379.4148598.1806068.0207939.3626518.0940781.5388641.0492249C46.1454926 43.1798553 46.2812729 42.930584 46.3332024 42.6934853zM44.8268089 33.3838463c-.029274-.0546341-.0639305-.1090698-.1159439-.1428223-.0759048-.0492516-.1732826-.0454216-.2636147-.0398979-.2919273.0179482-.5838318.0358696-.8757324.0537872-.3084679.0189362-.6261253.0367432-.9188423-.0623512-.5672646-.1920204-.900219-.7624397-1.3458748-1.1625099-.1668587-.1498375-.3850517-.284687-.6028786-.2312374-.2641792.0648041-.3861771.3627338-.4687042.6219234-.2092934.6572876-.4206123 1.3269157-.4248657 2.0166893-.0015755.2589912.0251884.5255356-.0576744.770916-.0351639.1040268-.0892334.2012062-.1197205.306694-.3766823 1.302597 1.6650238.8744659 2.2256088.5258751.4911919-.3054543.5954399-.5033607 1.1888237-.4897232.583889.0134392 1.1004639-.0107918 1.5342026-.4724808C44.9989357 34.6344299 45.1147652 33.9210472 44.8268089 33.3838463zM51.7812653 31.3575401c-.0177422-.0331097-.0387459-.0660992-.0702667-.0865555-.0460014-.0298481-.1050148-.0275249-.1597557-.0241795-.176918.0108776-.3538208.0217381-.5307198.0325966-.1869431.0114746-.3794479.0222664-.5568466-.0377865-.3437767-.1163692-.5455589-.4620609-.8156395-.7045135-.10112-.090807-.2333527-.1725292-.3653603-.1401367-.160099.0392723-.2340355.2198277-.28405.3769035-.1268349.3983345-.2549019.8041477-.2574768 1.2221699-.0009575.1569576.0152626.318491-.0349541.4671993-.0213127.0630417-.0540771.1219368-.0725555.1858673-.2282791.7894096 1.0090523.5299492 1.3487854.3186913.2976761-.185112.3608513-.3050499.720459-.2967873.3538551.0081482.6669159-.0065384.9297714-.286335C51.8855782 32.1154289 51.9557724 31.6830978 51.7812653 31.3575401zM38.8436394 44.0325966c.2926903-.4730721.5854111-.9461746.8781281-1.4192734.0841904-.1360893.1690826-.2736168.221489-.4248085.4643974-1.3405495-1.2330284-.9530182-2.0238686-.8420639-.8291855.1162834-2.466259.4164124-2.3099976 1.5956841.0165672.1251564.0598755.2525406.0278931.3746834-.0248489.0946693-.0918503.1719856-.1604614.2417755-.2305336.2344818-.503418.4271202-.8015175.5658569-.0855141.0398102-.1783791.0795975-.228817.1592789-.0586891.0927811-.0432472.2123032-.0257225.3206673.0424614.2624588.1400337.5832405.4026031.6248016.3505669.0555038.5238457-.4311485.8429947-.5863686.162632-.0791168.3542557-.0647202.5323524-.0333595.707386.1245346 1.48946.4730988 2.0910149.0806656C38.5318451 44.5322113 38.6915474 44.2784042 38.8436394 44.0325966zM50.2382622 51.5577736c-.0213585-.1586304-.1187325-.2958488-.2206764-.4193153-.2009201-.2434082-.431736-.4621086-.6855736-.6496773-.1282272-.0947533-.2662621-.1856766-.3495483-.3215981-.181736-.2966347-.0399551-.6681633.0696487-.9607391-.5819702.0280914-.9844627.4090004-1.1536293.9727974-.1254959.4189758-.0706673.8887787.1479492 1.2676048.0355301.0615082.0760193.1232414.0848961.1937065.0132408.1052666-.0462646.2044449-.103405.2938194-.1256638.1966095-.2513313.3932228-.3769646.5898056-.073204.1145058-.1491661.2528496-.0985603.3789635.0438423.1093216.172718.1644897.2903519.159111.1176605-.0054131.2271271-.0584679.332756-.110508.3625946-.1786079.7466316-.3769646.9437523-.7298393.0735931-.1318054.1319466-.2942963.2731895-.3474617.2026978-.0763016.4259071.1302834.6337891.0696487C50.1799355 51.8992653 50.2596169 51.7164612 50.2382622 51.5577736zM45.8446999 57.1262627c-.0213585-.1586304-.1187363-.295845-.2206764-.4193115-.2009201-.243412-.431736-.4621124-.6855736-.6496811-.1282272-.0947533-.2662621-.1856766-.3495483-.3215981-.181736-.2966347-.0399551-.6681595.0696487-.9607391-.5819702.0280914-.9844627.4090004-1.1536293.9727974-.1254959.4189758-.0706673.8887825.1479492 1.2676048.0355301.0615082.0760193.1232414.0848961.1937103.0132408.1052628-.0462646.2044411-.103405.2938156-.1256676.1966133-.2513313.3932228-.3769646.5898056-.073204.1145058-.1491661.2528496-.0985603.3789635.0438423.1093254.172718.1644936.2903519.159111.1176605-.0054092.2271271-.0584641.332756-.1105042.3625946-.1786079.7466316-.3769646.9437523-.7298393.0735931-.1318092.1319466-.2942963.2731895-.3474655.2026978-.0763016.4259071.1302834.6337891.0696487C45.7863731 57.4677544 45.8660545 57.2849503 45.8446999 57.1262627zM35.6961441 50.2133331c-.4665337-.0617599-1.6636429-.1392708-1.9917793.2747993-.2028923.2560349-.0240326.5395393-.0708046.8200607-.0643272.3856392-.2359734.483242-.5067978.7526588-.0635948.0632553-.1191025.1372452-.1467972.2225914-.0708351.2183609.0508003.446331.1451035.6556511.0943069.2093163.1535606.4828186-.0074921.6464081-.0519562.052803-.1213837.0864449-.1708031.1416702-.0494194.0551682-.0716248.1487694-.0178909.1997948.2752762-.2467079.4357376-.592453.6333923-.9047852.1976814-.312355.4681969-.6162872.831356-.6850662.2454414-.046463.498909.0218925.7478142-.0003662C36.2991905 52.2330055 37.3847237 50.4368248 35.6961441 50.2133331zM51.33078 39.3014221c.1115189-.402916.0453072-.8516426-.1777916-1.2051926.170887-.3496933.7136955-.3346748.9441452-.6483002.8444595-1.1494331-1.9452591-2.3470459-2.8636513-1.6382828-.4867096.3756409-.6326332 1.1275101-.3623695 1.661953.3822327.7558441.6695137.9082184.5466385 1.824131-.0444031.3310661-.0214958.7163124.2365074.9285049.2465401.202755.6194191.1634216.9043617.0194702C50.9317513 40.0551834 51.2192574 39.7043381 51.33078 39.3014221zM36.9038162 36.0854607c-.3462219-.2880135-.4427528-.7892075-.7629738-1.1058769-.0808067-.0799065-.1777611-.1508789-.2210655-.2559471-.0471115-.1142807-.0205688-.2440605.0066185-.364624.0750046-.3326988.388546-1.0954208.1411629-1.416626-.2733917-.3549881-.8433304.1850319-1.0284195.4238777-.0844154.1089287-.1560364.2295761-.2588501.3212891-.2413254.2152939-.5964813.2276039-.8979645.3445892-.3925171.1522903-.701664.5037575-.8025589.9125061-.0141182.0572243-.0240631.1193504-.0014114.1737862.0160904.0385742.046772.0688057.0766945.0979385.2712212.2642899.5632362.54002.933609.618885.1901283.0404587.3873024.0252991.5809555.0418396.460083.0392494.8844986.2547684 1.2898903.4758339.0914307.0498428.1853981.1011505.2887192.1141968C36.5102577 36.5002632 36.732338 36.2863541 36.9038162 36.0854607zM55.5025787 51.6993217c-.0133553-.1664619-.141922-.2973976-.2627373-.4127464-.5093651-.4863739-1.4730339-.1246529-1.8335152.411705-.0827522.1231575-.1462059.2611046-.2502022.3669052-.1040268.1057701-.2667694.1739578-.4022675.113575-.0681839-.0303726-.1224251-.089962-.1946373-.1089821-.1922455-.0506325-.3153152.1894836-.4562225.3297691-.0697098.0694275-.1603775.1227341-.203064.2113457-.0957146.1987267.1341438.4286423.3545914.421936s.4060135-.1587982.572731-.3031998c.0934029.1272125.29179.1168175.4321899.0447693.1404266-.0720177.2550468-.1898499.4006882-.250679.3197403-.1335526.6943665.0387688 1.0295715-.0491104.150631-.039505.2824936-.1289902.4110031-.2169266C55.299572 52.1216507 55.5218506 51.9394913 55.5025787 51.6993217zM38.404377 29.7214088c.0116653-.3448162.0162849-.7282333.2083626-1.0293484.1681252-.2635288.4417381-.3494358.6847267-.5201817.6338463-.4454041-.476593-.4374866-.7748909-.3857269-.127243.022089-.2544823.0441799-.3817253.0662689-.2544556.0441513-.5088577.0883026-.7633133.1324539-.0955734.0166245-.1931725.0338688-.2782059.0805283-.0670891.036768-.1233253.0901909-.1861038.1338634-.1922722.1336651-.4494324.1688004-.6705284.0916271-.1554756-.054266-.2883492-.1581783-.4368935-.2292385-.1486015-.0710602-.3327293-.1059132-.473156-.019865-.0653419.0400391-.1145096.1028996-.1481209.1717892-.1324539.2714748-.0148506.6173038.213768.8147602.2286186.197401.5417671.2690792.8436966.2789421.1914291.0062542.3871651-.0090446.5708427.0450802.4564781.1344833.7039185.6481285 1.1401939.8382607.0517311.0225391.1072922.0404606.1636162.0366001C38.3298798 30.2126274 38.3971367 29.9350109 38.404377 29.7214088zM39.0941238 55.938076c.8811989-1.2105751-1.7614708-.6908455-2.2246246-.469326-.4450378.2128677-.6018944.5606422-.788868.9969177-.2715302.6336441-.464817.813633-1.1058998 1.0431252-.3711052.1328506-.6958618.3915596-.9083328.7235565.5734901.0419807 1.1587868-.093853 1.6551895-.3841209.2247581-.1313858.4339066-.2945518.67836-.3841515.175396-.06427.3629913-.0882721.5412292-.1441765.2654457-.0832024.5033607-.2347298.7377853-.3845711.3101616-.1982994.6203766-.3966026.9305344-.5949059C38.787487 56.2266235 38.9697838 56.1088486 39.0941238 55.938076zM47.3739471 47.1594505c.0356827-.0991364.0942764-.1885529.1331291-.2864914.0854988-.2156754.0670319-.4699478-.0487595-.6709938-.1158142-.2010498-.3265152-.3446045-.5559769-.3788414-.0353622-.0052681-.0722733-.0079727-.1061974.0033531-.0420647.0140038-.074173.0475769-.1046143.0798225-.1632805.1729164-.3409843.3484497-.5690536.415863-.0663681.0196228-.1356277.0295143-.2003479.0540543-.2870674.1088562-.5080376.5574036-.2752914.8050537.0609589.0648766.1330605.134697.2220688.1330032.1034622-.0019722.1758728-.097374.2561607-.1626701.1545715-.125721.3863754-.1467972.5610809-.0510406.1071815.0587463.1901855.1546555.2968864.2142754.1066742.0596199.2605438.0701294.3347321-.0269928C47.3462486 47.2505417 47.3580399 47.2036133 47.3739471 47.1594505zM28.0121899 50.152504c.0356846-.0991364.0942764-.1885529.133131-.2864914.0854988-.2156715.06703-.469944-.0487595-.6709938-.1158161-.2010498-.3265152-.3446045-.5559788-.3788376-.0353622-.0052681-.0722713-.0079727-.1061954.0033531-.0420666.0140038-.074173.0475731-.1046162.0798225-.1632805.1729126-.3409843.3484497-.5690536.4158592-.0663681.0196266-.1356258.0295143-.2003441.0540581-.2870712.1088562-.5080395.5573997-.2752934.8050537.0609589.0648727.1330605.1346931.2220688.1330032.1034603-.0019722.1758728-.0973778.2561607-.162674.1545715-.125721.3863754-.1467972.561079-.0510406.1071815.0587463.1901875.1546593.2968884.2142792.1066742.0596199.2605419.0701294.3347301-.0269928C27.9844913 50.2435951 27.9962845 50.1966705 28.0121899 50.152504zM56.2215652 40.9341125c.0356827-.0991402.0942764-.1885529.1331291-.2864952.0854988-.2156715.0670319-.469944-.0487595-.6709938-.1158142-.201046-.3265152-.3446045-.5559769-.3788376-.0353622-.0052681-.0722733-.0079727-.1061974.0033531-.0420647.0140038-.074173.0475769-.1046143.0798225-.1632805.1729164-.3409843.3484497-.5690536.415863-.0663681.0196228-.1356277.0295143-.2003441.0540543-.2870712.1088562-.5080414.5574036-.2752953.8050537.0609589.0648766.1330605.1346931.2220688.1330032.1034622-.0019722.1758728-.097374.2561607-.162674.1545715-.1257172.3863754-.1467934.5610809-.0510368.1071815.0587463.1901855.1546555.2968864.2142754.1066742.0596199.2605438.0701294.3347321-.0269928C56.1938667 41.0252037 56.205658 40.9782753 56.2215652 40.9341125zM45.9390755 36.1641579c.0312576-.1034813.0524216-.2122421.1095047-.304039.1901817-.3058357.7073402-.3258629.8172455-.6688309.1551628.3107109-.1545868.6448669-.2245827.9850388-.0406303.1974564.0027046.4021568.0590744.5957069.0908546.3119621.2262497.6279068.4810677.8294983-.1777191.1242561-.2769699.3546982-.4801407.4304962-.371563.1386223-.7246513-.3361778-1.1194801-.2989349-.0999756.0094299-.1958389.0521889-.2962532.0510254s-.2136688-.0733147-.2038765-.1732559C45.1296921 37.120327 45.7959633 36.646328 45.9390755 36.1641579zM57.4640923 47.6891747c.0312576-.1034775.0524216-.2122421.1095047-.3040352.1901817-.3058395.7073402-.3258667.8172493-.6688347.1551628.3107109-.1545906.6448708-.2245827.9850388-.0406303.1974564.0027046.4021606.0590706.5957108.0908546.3119583.2262497.627903.4810715.8294983-.1777229.1242523-.2769737.3546944-.4801445.4304924-.371563.1386223-.7246513-.3361778-1.1194763-.2989311-.0999756.0094299-.1958427.0521851-.296257.0510216-.1004105-.0011597-.213665-.0733147-.2038765-.1732559C56.6547127 48.6453438 57.3209839 48.1713448 57.4640923 47.6891747zM39.9121819 38.6471214c.0916748-.014389.1634445-.083416.232193-.145752.1765976-.1601181.3828392-.3005943.6179466-.3399696.2351036-.0393753.5024071.0435867.6267242.2469826.124321.2033958.0431824.5204353-.1835594.5940056-.0723.0234566-.1503448.0219765-.2242508.0397263-.2052155.0492821-.3438034.2329903-.4954681.3797569-.1516647.1467628-.3814392.2688179-.5658188.1661224-.0431252-.0240173-.082695-.059948-.1318855-.0640526-.0967102-.0080757-.1528206.1016693-.2058258.1829681-.156868.2406006-.4818077.3249359-.7651367.2778015-.2833099-.0471306-.5359993-.2004967-.7807274-.350811-.0723648-.0444489.4613228-.9858513.6468582-1.0459061C39.0078087 38.482933 39.5520897 38.7036324 39.9121819 38.6471214zM30.0810318 31.3594398c.0916767-.0143909.1634464-.0834179.2321949-.145752.1765957-.16012.3828392-.3005943.6179447-.3399696.2351036-.0393772.502409.0435886.6267262.2469826.1243191.2033958.0431824.5204334-.1835613.5940037-.072298.0234585-.1503429.0219784-.2242508.0397282-.2052155.0492802-.3438015.2329903-.4954662.3797531-.1516647.1467667-.3814392.2688179-.5658188.1661263-.0431232-.0240173-.082695-.059948-.1318855-.0640526-.0967121-.0080757-.1528206.1016693-.2058258.1829643-.156868.2406044-.4818077.3249397-.7651367.2778053-.2833118-.0471306-.5359993-.2004967-.7807274-.350811-.0723667-.0444489.4613209-.9858513.6468582-1.045908C29.1766605 31.1952496 29.7209435 31.4159508 30.0810318 31.3594398zM30.4656239 36.0431023c.0916767-.0143929.1634483-.0834198.2321949-.145752.1765976-.1601219.3828411-.3005943.6179447-.3399734.2351036-.0393753.502409.0435905.6267281.2469864s.0431805.5204315-.1835613.5940018c-.072298.0234604-.1503448.0219803-.2242527.0397263-.2052155.0492821-.3437996.2329941-.4954662.3797569-.1516647.1467628-.3814392.2688179-.5658188.1661263-.0431232-.0240211-.082695-.059948-.1318855-.0640564-.0967121-.0080719-.1528206.1016731-.2058239.1829681-.1568699.2406006-.4818096.3249359-.7651386.2778053-.2833118-.0471306-.5359974-.2004967-.7807274-.350811-.0723667-.0444489.4613228-.9858551.6468582-1.0459099C29.5612526 35.8789101 30.1055355 36.0996132 30.4656239 36.0431023zM33.1277618 41.3862572c-.0204163.0905266.0172997.1826859.0499039.2695694.0837517.2231789.1383171.4666824.0882645.6997452-.0500565.2330627-.225708.4509697-.4606018.4915619-.2348976.040596-.4997063-.1516876-.48452-.3895798.0048409-.0758553.0349808-.1478615.0457268-.2231064.0298271-.208931-.0898628-.4054718-.1703911-.6005554s-.1092949-.4536667.0541267-.5872154c.0382233-.0312347.0862083-.0547752.1081581-.0989876.0431519-.0869255-.0381851-.1795387-.0942192-.2587738-.1658401-.2345085-.1244659-.5676537.0237808-.8136635.1482391-.2459908.3839455-.4243546.6138802-.596447.0679932-.0508881.7463989.7922173.7338409.9868279C33.6137352 40.6060791 33.2079544 41.0306892 33.1277618 41.3862572zM38.7961044 51.0100365c-.0204124.0905266.0172997.1826859.0499039.2695694.0837555.2231827.1383171.4666824.0882645.6997452-.0500526.2330666-.2257042.4509697-.4606018.4915657-.2348976.0405922-.4997063-.1516876-.48452-.3895836.0048409-.0758553.0349846-.1478615.0457268-.2231064.0298309-.208931-.0898628-.4054718-.1703911-.6005554s-.1092949-.4536667.0541306-.5872116c.0382233-.0312347.0862083-.0547791.1081543-.0989914.0431519-.0869255-.0381813-.1795349-.0942192-.2587738-.1658401-.2345085-.1244659-.5676537.0237808-.8136597.1482391-.2459946.3839455-.4243584.613884-.5964508.0679932-.0508881.7463989.7922173.7338371.9868279C39.2820816 50.2298622 38.8763008 50.6544724 38.7961044 51.0100365zM30.535984 54.6457405c-.0204144.0905266.0172977.1826897.0499039.2695732.0837536.2231789.1383171.4666786.0882626.6997452-.0500526.2330627-.2257042.4509659-.4606018.4915619-.2348957.040596-.4997044-.1516876-.48452-.3895836.0048428-.0758514.0349846-.1478577.0457287-.2231026.029829-.208931-.0898647-.4054756-.170393-.6005592-.0805264-.1950798-.109293-.4536667.0541306-.5872116.0382214-.0312347.0862064-.0547752.1081562-.0989876.0431519-.0869293-.0381851-.1795387-.0942192-.2587738-.1658401-.2345085-.1244659-.5676575.0237808-.8136635.1482391-.2459908.3839455-.4243584.6138821-.5964508.0679913-.0508881.7463989.7922211.7338371.9868279C31.0219593 53.8655663 30.6161785 54.2901764 30.535984 54.6457405zM42.350914 45.175354c.1785202-.1805534.1370163-.3558922.1116028-.5875511-.638382-.0066223-1.5842133-.683548-1.6101646.452755-.0090179.3959846-.1801567.7859383-.4655495 1.0606232-.0336685.0324326-.0716782.0696526-.0701027.1163673.0019455.0587463.0704689.0968399.1286812.0886154.0581818-.0082588.1063614-.0480423.1502037-.0871506.1577835-.1406517.3048058-.2933083.4394302-.4562225.0373344-.0452232.075428-.0926132.127861-.1187897.0458717-.022934.0984497-.0274429.149559-.0315552.1551628-.0124817.3103294-.0249634.4654922-.0374489.0639038-.005127.1294708-.0107346.1872292-.0384598.0540428-.0259209.09729-.069397.1394424-.1119957C42.1867027 45.3414764 42.2688065 45.2584152 42.350914 45.175354zM49.686554 55.9429169c.178524-.1805534.1370201-.3558884.1116066-.5875511-.638382-.0066223-1.5842171-.683548-1.6101646.4527588-.0090179.3959808-.1801567.7859344-.4655495 1.0606232-.0336723.0324287-.071682.0696487-.0701027.1163635.0019455.0587463.0704689.0968399.1286774.0886154.0581856-.0082588.1063652-.0480423.1502075-.0871506.1577835-.1406517.3048058-.2933083.4394302-.4562225.0373306-.0452232.075428-.0926132.127861-.1187897.0458717-.022934.0984459-.0274429.149559-.0315552.1551628-.0124817.3103256-.0249634.4654922-.0374451.0639038-.0051308.129467-.0107384.1872292-.0384598.054039-.0259247.09729-.0694008.1394424-.1119995C49.5223465 56.1090393 49.6044502 56.0259781 49.686554 55.9429169z"/><path fill="#893521" d="M51.8776207,47.8967896c-10.3106575,0-18.6691093,8.3584518-18.6691093,18.6689529
		c0,10.3108139,8.3584518,18.6692657,18.6691093,18.6692657S70.54673,76.8765564,70.54673,66.5657425
		C70.54673,56.2552414,62.1882782,47.8967896,51.8776207,47.8967896z"/><path fill="#963e25" d="M53.7647705 51.806488c.0312576-.1034813.0524216-.2122421.1095047-.304039.1901855-.3058357.7073441-.3258629.8172493-.6688309.1551628.3107109-.1545906.6448669-.2245827.9850388-.0406303.1974564.0027046.4021568.0590744.5957069.0908508.3119621.2262459.6279068.4810677.8294983-.1777229.1242523-.2769737.3546982-.4801445.4304962-.371563.1386223-.7246513-.3361778-1.1194763-.2989349-.0999756.0094299-.1958427.0521851-.296257.0510254-.1004105-.0011635-.213665-.0733147-.2038727-.1732559C52.9553909 52.7626534 53.6216621 52.2886543 53.7647705 51.806488zM62.0329742 67.1594467c.1021652-.0812531.2095108-.1649628.3374023-.1910858.2680969-.0547714.5086441.1530609.7544899.2732086.2568741.1255341.5576668.1588135.8357697.0924683.21381-.0510025.4340324-.1588593.6426964-.0897446.1186829.0393143.2116394.1306229.3000259.2190475.1690674.1691284.3381348.3382568.5072021.5073853.1186447.1186829.2394638.240387.3127289.3913651.0968323.1995468.1011658.4296951.1036301.6514816.0073013.6583481.0079956 1.3464432-.2909698 1.9330368-.0447388.0877914-.0991898.1758041-.1836624.226532-.0666885.0400391-.1456757.0529404-.2225113.0650864-.5808029.0917664-1.1616135.1835403-1.7424202.2753067-.4500427.071106-.9816399.1160431-1.2908592-.2185822-.2229385-.2412567-.2470665-.5981064-.3418198-.9126358-.1131172-.3754807-.3399124-.7110443-.6216354-.9838333-.1287346-.1246567-.2735863-.2432785-.3436928-.4096527C60.5290108 68.3648148 61.6382675 67.4733582 62.0329742 67.1594467zM35.9052391 64.8571854c.1021652-.0812531.2095108-.1649628.3374023-.1910858.2680969-.0547714.5086441.1530609.7544937.2732086.2568741.1255341.557663.1588135.8357658.0924683.2138138-.0510025.4340324-.1588593.6426926-.0897446.1186905.0393143.2116394.1306229.3000336.2190475.1690674.1691284.338131.3382568.5071983.5073853.1186409.1186829.2394676.240387.3127289.3913651.0968323.1995468.1011696.4296951.1036301.6514816.0073013.6583481.0079956 1.3464432-.2909698 1.9330368-.0447426.0877914-.0991859.1758041-.1836586.226532-.0666885.0400391-.1456795.0529404-.2225113.0650864-.5808105.0917664-1.1616173.1835403-1.742424.2753067-.4500389.071106-.981636.1160431-1.2908592-.2185822-.2229385-.2412567-.2470665-.5981064-.3418198-.9126358-.1131172-.3754807-.3399124-.7110443-.6216354-.9838333-.1287346-.1246567-.2735863-.2432785-.3436928-.4096527C34.4012756 66.0625534 35.5105324 65.1710968 35.9052391 64.8571854zM52.0327072 72.3600006c.0714912-.0568542.1466103-.1154404.2361031-.1337204.1876068-.0383224.3559303.1071167.5279655.191185.1797523.0878448.3902359.1111298.5848427.0647049.1496201-.0356903.3037224-.1111603.4497375-.0627975.0830536.0275116.148098.0914078.2099495.1532822.118309.1183472.2366142.236702.3549232.3550491.0830231.0830536.1675682.1682129.2188377.2738647.0677567.1396408.0707932.3006897.0725136.4558868.0051117.4606934.0055962.9421921-.2036095 1.3526764-.0313072.0614319-.0694084.1230164-.1285172.1585159-.0466652.0280228-.1019402.0370483-.1557083.0455475-.4064293.0642166-.8128586.1284332-1.2192879.1926498-.3149223.0497589-.6869164.0811996-.9033012-.1529617-.156002-.1688156-.1728897-.4185333-.239193-.6386261-.079155-.2627487-.2378578-.4975662-.4349976-.6884537-.0900841-.0872269-.1914482-.1702347-.2405052-.2866592C50.9802818 73.203476 51.7565041 72.5796661 52.0327072 72.3600006zM40.9975891 70.2832031c.0528793-.0420532.1084404-.0853806.174633-.0988998.1387596-.0283508.2632599.0792236.3905067.1414032.1329498.0649719.2886314.0821991.4325714.0478592.1106644-.0263977.2246437-.0822144.3326454-.0464478.0614281.0203476.109539.0676041.1552887.1133728.0875015.0875397.1750069.1750793.2625122.2626114.0614052.0614319.1239433.1244202.1618614.2025604.0501175.1032791.0523605.2224045.0536346.3371964.0037804.340744.0041389.6968842-.1505966 1.0004883-.023159.0454407-.0513382.0909958-.0950584.1172485-.0345154.0207214-.0754013.0274048-.1151657.0336838-.3006134.0475006-.601223.0950012-.9018364.1424942-.2329292.0368042-.5080719.0600586-.6681175-.1131287-.115387-.1248703-.1278763-.3095703-.176918-.4723587-.058548-.1943436-.17593-.3680191-.321743-.5092087-.0666275-.0645218-.1416016-.1259155-.177887-.2120285C40.2191734 70.907074 40.7933006 70.4456787 40.9975891 70.2832031zM56.7595596 66.3605652c.0519562-.2370758.0498962-.488205.1442871-.7118073.0685501-.1623764.1858215-.3042755.2286758-.4752121.0860481-.3434677-.1466293-.6776886-.3659782-.9556427-.2534409-.3211746-.5473709-.6665573-.9526253-.7227669-.4927101-.068325-.9211235.3146133-1.2704773.6687508-.6012688.6095581-1.4559555 1.3111343-.9267311 2.2787781.4756393.8696518 1.4300117.328392 2.1810379.4148636.1806068.0207977.3626518.0940781.5388603.0492249C56.5718498 66.8469315 56.7076302 66.5976639 56.7595596 66.3605652zM55.2531662 57.0509262c-.0292778-.0546341-.0639305-.1090698-.1159439-.1428223-.0759048-.0492516-.1732826-.0454216-.2636147-.0398979-.2919312.0179482-.5838318.0358696-.8757324.0537872-.3084679.0189362-.6261253.0367432-.9188423-.0623512-.5672646-.1920204-.900219-.7624397-1.3458748-1.1625099-.1668587-.1498375-.3850517-.284687-.6028786-.2312393-.2641792.0648041-.3861809.3627357-.468708.6219254-.2092896.6572876-.4206085 1.3269157-.4248619 2.0166893-.0015793.2589912.0251884.5255356-.0576744.770916-.0351639.1040268-.0892334.2012062-.1197205.306694-.3766823 1.3026009 1.6650238.8744659 2.2256088.5258751.4911919-.3054543.5954399-.5033607 1.1888237-.4897232.583889.0134392 1.1004639-.0107918 1.5342026-.4724808C55.425293 58.3015099 55.5411224 57.5881271 55.2531662 57.0509262zM62.2076225 55.0246201c-.0177422-.0331116-.0387459-.0661011-.0702667-.0865555-.0460014-.0298462-.1050148-.0275269-.1597557-.0241776-.176918.0108757-.3538208.0217361-.5307198.0325966-.1869431.0114746-.3794518.0222664-.5568466-.0377884-.3437767-.1163673-.5455589-.462059-.8156395-.7045135-.10112-.0908051-.2333527-.1725273-.3653603-.1401367-.160099.0392723-.2340355.2198296-.28405.3769035-.1268349.3983345-.2549019.8041496-.2574806 1.2221718-.0009537.1569557.0152664.3184891-.0349503.4671974-.0213127.0630417-.054081.1219368-.0725555.1858673-.2282791.7894096 1.0090523.5299492 1.3487854.3186913.2976723-.185112.3608513-.3050499.720459-.2967873.3538551.0081482.6669121-.0065384.9297714-.286335C62.3119354 55.7825089 62.3821297 55.3501778 62.2076225 55.0246201zM49.2699966 67.6996765c.2926903-.4730759.5854111-.9461746.8781281-1.4192734.0841904-.1360931.1690826-.273613.221489-.4248047.4643974-1.3405533-1.2330284-.9530258-2.0238686-.8420639-.8291893.1162796-2.466259.4164124-2.3099976 1.5956802.0165672.1251602.0598755.2525406.0278931.3746796-.0248489.0946732-.0918541.1719894-.1604614.2417831-.2305336.2344742-.503418.4271164-.8015175.5658493-.0855141.0398178-.1783829.0795975-.228817.1592789-.0586891.0927887-.0432472.2123108-.0257225.3206711.0424614.2624588.1400337.5832367.4026031.6248016.350563.0555038.5238457-.4311523.8429947-.5863724.1626282-.0791168.3542557-.0647202.5323524-.0333557.7073822.1245346 1.48946.4730988 2.0910149.0806656C48.9582024 68.1992874 49.1179047 67.9454803 49.2699966 67.6996765zM60.6646194 75.2248535c-.0213585-.1586304-.1187363-.295845-.2206764-.4193115-.2009201-.2434158-.431736-.4621124-.6855736-.6496811-.1282272-.0947571-.2662621-.1856766-.3495483-.3216019-.181736-.2966309-.0399551-.6681595.0696487-.9607391-.5819702.0280914-.9844627.4090042-1.1536293.9728012-.1254959.4189758-.0706673.8887787.1479492 1.267601.0355301.0615082.0760193.1232452.0848961.1937103.0132408.1052628-.0462646.2044449-.103405.2938156-.1256676.1966171-.2513313.3932266-.3769684.5898056-.0732002.1145096-.1491623.2528534-.0985565.3789673.0438423.1093216.172718.1644897.2903519.159111.1176605-.0054092.2271233-.0584641.332756-.1105042.3625946-.1786118.7466316-.3769684.9437485-.7298431.073597-.1318054.1319504-.2942963.2731934-.3474655.2026978-.0763016.4259071.1302872.6337891.0696564C60.6062927 75.5663452 60.6859741 75.3835373 60.6646194 75.2248535zM56.2710533 80.7933426c-.0213547-.1586304-.1187325-.295845-.2206726-.4193115-.2009201-.2434082-.431736-.4621124-.6855736-.6496811-.1282272-.0947571-.2662621-.1856766-.3495483-.3215942-.181736-.2966385-.0399551-.6681671.0696487-.9607391-.5819702.0280838-.9844627.4089966-1.1536293.9727936-.1254959.4189758-.0706673.8887787.1479492 1.2676086.0355301.0615005.0760193.1232376.0848961.1937027.0132408.1052704-.0462646.2044449-.1034088.2938232-.1256638.1966095-.2513275.393219-.3769646.5898056-.0732002.114502-.1491623.2528458-.0985565.3789597.0438423.1093216.172718.1644897.2903519.159111.1176605-.0054092.2271233-.0584641.332756-.1105042.3625946-.1786118.7466316-.3769684.9437485-.7298431.073597-.1318054.1319504-.2942963.2731934-.3474655.2026978-.0762939.4259071.1302872.6337891.0696564C56.2127304 81.1348343 56.2924118 80.9520264 56.2710533 80.7933426zM46.1225014 73.8804169c-.4665375-.0617676-1.6636429-.1392746-1.9917793.2747955-.2028923.2560349-.0240326.5395432-.0708046.8200607-.0643272.385643-.2359734.4832458-.5068016.7526627-.063591.0632553-.1190987.1372452-.1467934.2225876-.0708351.2183609.0508003.4463348.1451035.6556473.0943069.2093201.1535606.4828262-.0074921.6464157-.0519562.0527954-.1213837.086441-.1708031.1416626-.0494194.0551682-.0716248.1487732-.0178909.1997986.2752762-.2467117.4357376-.592453.6333923-.9047852.1976814-.312355.4681969-.6162872.831356-.6850662.2454414-.046463.498909.0218964.7478142-.0003662C46.7255478 75.9000854 47.8110809 74.1039047 46.1225014 73.8804169zM61.7571373 62.968502c.1115189-.402916.0453072-.8516426-.1777916-1.2051926.170887-.3496933.7136955-.3346748.9441452-.6483002.8444595-1.1494331-1.9452591-2.3470459-2.8636513-1.6382828-.4867096.3756409-.6326332 1.1275101-.3623695 1.661953.3822327.7558441.6695137.9082184.5466385 1.824131-.0444031.3310661-.0214996.7163124.2365074.9285049.2465401.202755.6194191.1634178.9043617.0194702C61.3581085 63.7222633 61.6456146 63.371418 61.7571373 62.968502zM47.3301735 59.7525406c-.3462257-.2880135-.4427528-.7892075-.7629738-1.1058769-.0808067-.0799065-.1777611-.1508789-.2210655-.2559471-.0471115-.1142807-.0205688-.2440605.0066185-.364624.0750046-.3326988.388546-1.0954208.1411629-1.416626-.2733917-.3549881-.8433304.1850319-1.0284195.4238777-.0844154.1089287-.1560364.2295761-.2588501.3212891-.2413254.2152939-.5964851.2276039-.8979645.3445892-.3925171.1522903-.701664.5037575-.8025627.9125061-.0141144.0572243-.0240593.1193504-.0014076.1737862.0160904.0385742.046772.0688057.0766945.0979385.2712212.2642899.5632362.54002.9336052.618885.1901321.0404587.3873062.0252991.5809593.0418396.460083.0392494.8844948.2547684 1.2898903.4758339.0914307.0498428.1853981.1011505.2887192.1141968C46.936615 60.1673431 47.1586952 59.953434 47.3301735 59.7525406zM65.9289398 75.3664017c-.0133591-.1664658-.141922-.2973938-.2627411-.4127502-.5093613-.4863663-1.4730377-.124649-1.8335152.411705-.082756.1231613-.1462059.2611084-.2502022.3669052-.1040268.1057739-.2667694.1739578-.4022675.1135788-.0681839-.0303726-.1224251-.0899658-.1946373-.1089859-.1922455-.0506287-.3153191.1894836-.4562263.3297729-.069706.0694275-.1603737.1227341-.2030602.2113495-.0957146.1987228.1341438.4286346.3545914.4219284s.4060135-.1587982.572731-.3031998c.0934029.1272125.29179.1168213.4321899.0447769.1404266-.0720215.2550468-.1898499.4006844-.2506866.3197403-.1335526.6943665.0387726 1.0295792-.0491104.1506271-.0394974.282486-.1289825.4109955-.2169266C65.7259293 75.7887268 65.9482117 75.606575 65.9289398 75.3664017zM48.8307343 53.3884888c.0116653-.3448143.0162849-.7282333.2083626-1.0293465.1681252-.2635307.4417381-.3494377.6847267-.5201836.6338463-.4454041-.476593-.4374847-.7748909-.3857269-.127243.0220909-.2544861.044178-.3817253.0662689-.2544556.0441513-.5088577.0883026-.7633133.1324539-.0955734.0166245-.1931725.0338669-.2782097.0805283-.0670853.0367699-.1233253.0901909-.1861.1338615-.1922722.133667-.4494324.1688042-.6705284.091629-.1554756-.0542679-.288353-.1581802-.4368935-.2292404-.1486015-.0710564-.3327293-.1059113-.4731598-.0198631-.0653381.0400391-.1145058.1028976-.1481171.1717873-.1324577.2714767-.0148506.6173058.213768.8147621.2286186.1973991.5417671.2690811.8436966.2789421.1914291.0062561.3871651-.0090446.5708427.0450821.4564781.1344833.7039185.6481285 1.1401939.8382568.0517311.022541.1072922.0404625.1636162.036602C48.756237 53.8797073 48.823494 53.6020889 48.8307343 53.3884888zM49.5204811 79.6051559c.8811989-1.2105789-1.7614708-.6908417-2.2246246-.4693298-.4450378.2128677-.6018944.5606461-.788868.9969177-.2715302.6336517-.464817.8136368-1.1059036 1.043129-.3711014.1328506-.695858.3915634-.9083328.7235565.573494.0419846 1.1587906-.0938568 1.6551933-.3841248.2247581-.1313782.4339066-.294548.67836-.3841476.175396-.06427.3629875-.0882721.5412292-.1441727.2654457-.0832062.5033607-.2347336.7377853-.3845749.3101578-.1983032.6203766-.3965988.9305344-.594902C49.2138405 79.8936996 49.3961411 79.7759247 49.5204811 79.6051559zM57.8003006 70.8265305c.0356865-.0991364.0942764-.1885529.1331329-.2864914.0854988-.2156754.067028-.4699478-.0487595-.6709976-.115818-.2010498-.3265152-.3446045-.5559807-.3788376-.0353584-.0052643-.0722694-.0079727-.1061935.0033569-.0420647.0139999-.074173.0475693-.1046181.0798187-.1632767.1729126-.3409843.3484497-.5690536.415863-.0663681.0196228-.1356239.0295105-.2003441.0540543-.2870674.1088562-.5080376.5574036-.2752914.8050537.0609589.0648727.1330605.134697.2220688.1330032.1034622-.0019684.1758728-.097374.2561607-.162674.1545715-.1257172.3863754-.1467972.5610809-.0510406.1071777.0587463.1901855.1546631.2968864.2142792.1066742.0596237.2605438.0701294.3347282-.0269928C57.7726059 70.9176254 57.7843971 70.870697 57.8003006 70.8265305zM38.4385452 73.8195877c.0356865-.0991364.0942764-.1885529.1331329-.286499.0854988-.2156677.067028-.4699402-.0487595-.67099-.115818-.2010498-.3265152-.3446045-.5559807-.3788376-.0353584-.0052719-.0722694-.0079727-.1061935.0033493-.0420685.0140076-.074173.0475769-.1046181.0798264-.1632767.1729126-.3409843.3484497-.5690536.415863-.0663681.0196228-.1356239.0295105-.2003441.0540543-.2870674.1088562-.5080376.5574036-.2752914.8050537.0609589.0648727.1330605.134697.2220688.1330032.1034622-.001976.1758728-.097374.2561607-.162674.1545715-.1257172.3863754-.1467972.5610771-.0510406.1071815.0587463.1901894.1546555.2968903.2142792.1066742.0596161.2605438.0701294.3347282-.0269928C38.4108505 73.910675 38.4226418 73.8637466 38.4385452 73.8195877zM66.6479187 64.6011887c.0356827-.0991364.0942764-.1885529.1331329-.2864914.0855026-.2156677.0670319-.469944-.0487595-.6709938-.1158142-.201046-.3265152-.3446045-.5559769-.3788376-.0353622-.0052681-.0722733-.0079727-.1061935.0033531-.0420685.0140038-.074173.0475769-.1046219.0798225-.1632767.1729164-.3409805.3484497-.5690536.415863-.0663681.0196228-.1356201.0295143-.2003403.0540543-.2870712.1088562-.5080414.5573997-.2752914.8050575.0609589.0648727.1330566.1346893.2220688.1330032.1034546-.001976.1758728-.0973816.2561569-.162674.1545715-.1257248.3863754-.1467972.5610809-.0510406.1071777.0587463.1901855.1546555.2968903.2142792.1066742.0596161.2605362.0701294.3347244-.0269928C66.620224 64.6922836 66.6320114 64.6453552 66.6479187 64.6011887zM56.3654289 59.8312378c.0312576-.1034813.0524254-.2122421.1095085-.304039.1901817-.3058357.7073402-.3258629.8172455-.6688309.1551628.3107109-.1545868.6448669-.2245827.9850388-.0406303.1974564.0027046.4021568.0590744.5957069.0908546.3119621.2262459.6279068.4810677.8295021-.1777191.1242523-.2769699.3546944-.4801407.4304924-.371563.1386223-.7246513-.3361778-1.1194801-.2989349-.0999756.0094299-.1958389.0521889-.2962532.0510254s-.2136688-.0733147-.2038765-.1732559C55.5560493 60.7874069 56.2223206 60.3134079 56.3654289 59.8312378zM67.8904495 71.3562546c.0312576-.1034775.0524216-.2122421.1095047-.304039.1901855-.3058319.7073441-.3258591.8172455-.6688309.1551666.3107071-.1545868.6448669-.2245789.9850388-.0406342.1974564.0027008.4021606.0590744.5957108.0908508.3119583.2262421.6278992.4810638.8294983-.1777191.1242523-.2769699.3546982-.4801407.4304962-.3715591.1386185-.7246552-.3361816-1.1194763-.2989349-.0999756.0094299-.1958466.0521851-.296257.0510254-.1004105-.0011673-.2136688-.0733185-.2038727-.1732635C67.0810699 72.3124237 67.7473373 71.8384247 67.8904495 71.3562546zM50.3385391 62.3142014c.0916748-.014389.1634445-.083416.232193-.145752.1765976-.1601181.3828392-.3005943.6179428-.3399696.2351074-.0393753.5024109.0435867.6267281.2469826s.0431824.5204353-.1835594.5940056c-.0723.0234566-.1503448.0219765-.2242508.0397263-.2052155.0492821-.3438034.2329903-.4954681.3797569-.1516647.1467628-.3814392.2688179-.5658188.1661224-.0431252-.0240173-.082695-.059948-.1318855-.0640526-.0967102-.0080757-.1528206.1016693-.2058258.1829681-.156868.2406006-.4818077.3249359-.7651367.2778015-.2833099-.0471306-.5359993-.2004967-.7807274-.350811-.0723648-.044445.4613228-.9858513.6468582-1.0459061C49.434166 62.150013 49.978447 62.3707123 50.3385391 62.3142014zM40.5073891 55.0265198c.0916748-.014389.1634483-.083416.232193-.145752.1765976-.1601181.382843-.3005943.6179466-.3399696s.5024071.0435867.6267281.2469826c.1243172.2033958.0431786.5204353-.1835632.5940018-.0722961.0234604-.1503448.0219803-.2242508.0397301-.2052155.0492821-.3437996.2329903-.4954681.3797531-.1516647.1467667-.3814354.2688179-.5658188.1661263-.0431213-.0240173-.082695-.059948-.1318855-.0640526-.0967102-.0080757-.1528206.1016693-.205822.1829643-.1568718.2406044-.4818115.3249397-.7651405.2778053-.2833099-.0471306-.5359955-.2004967-.7807274-.350811-.0723648-.0444489.4613228-.9858513.6468582-1.0459061C39.6030159 54.8623314 40.1473007 55.0830307 40.5073891 55.0265198zM40.8919792 59.7101822c.0916786-.0143929.1634483-.0834198.2321968-.145752.1765976-.1601219.3828392-.3005943.6179428-.3399734.2351036-.0393753.5024109.0435905.6267281.2469864s.0431824.5204315-.1835594.5940018c-.0723.0234604-.1503448.0219803-.2242508.0397263-.2052155.0492821-.3438034.2329941-.4954681.3797569s-.3814392.2688179-.5658188.1661263c-.0431252-.0240211-.082695-.059948-.1318855-.0640564-.096714-.0080719-.1528206.1016731-.2058258.1829681-.156868.2406006-.4818077.3249359-.7651367.2778053-.2833138-.0471306-.5359993-.2004967-.7807274-.350811-.0723648-.0444489.4613228-.9858551.6468582-1.0459099C39.9876099 59.54599 40.5318909 59.7666931 40.8919792 59.7101822zM43.5541191 65.0533371c-.0204163.0905228.0172958.1826859.0499039.2695694.0837517.2231827.1383171.4666824.0882607.6997452-.0500526.2330627-.2257042.4509659-.4606018.4915619-.2348938.040596-.4997025-.1516876-.48452-.3895798.0048447-.0758591.0349846-.1478577.0457306-.2231064.0298271-.208931-.0898666-.4054718-.1703949-.6005554-.0805244-.1950836-.1092911-.4536667.0541306-.5872116.0382233-.0312347.0862083-.0547791.1081581-.0989914.0431519-.0869293-.0381851-.1795349-.0942192-.2587738-.1658401-.2345047-.1244659-.5676537.0237808-.8136635.1482391-.2459908.3839455-.4243546.6138802-.596447.0679932-.0508881.7463989.7922173.7338371.9868279C44.0400925 64.2731628 43.6343117 64.6977692 43.5541191 65.0533371zM49.2224617 74.6771164c-.0204124.0905304.0172997.1826859.0499039.2695694.0837555.2231827.1383171.4666824.0882645.6997452s-.2257042.4509735-.4606018.4915619c-.2348976.040596-.4997063-.1516876-.48452-.3895798.0048409-.0758514.0349846-.1478577.0457268-.2231064.0298309-.208931-.0898628-.4054718-.1703911-.6005554s-.1092949-.4536667.0541306-.5872116c.0382195-.0312347.0862045-.0547791.1081543-.0989914.0431519-.0869293-.0381813-.1795349-.0942192-.2587738-.1658401-.2345047-.1244659-.5676575.0237808-.8136597.1482391-.2459946.3839455-.4243546.613884-.5964508.0679893-.0508881.7463989.7922211.7338371.986824C49.7084389 73.8969421 49.3026581 74.3215485 49.2224617 74.6771164zM40.9623413 78.3128204c-.0204163.0905304.0172997.1826859.0499039.2695694.0837517.2231827.1383171.4666824.0882645.6997452-.0500565.2330704-.225708.4509735-.4606018.4915695-.2348976.0405884-.4997063-.1516876-.48452-.3895874.0048409-.0758514.0349808-.1478577.0457268-.2231064.0298271-.208931-.0898666-.4054718-.1703911-.6005554-.0805283-.1950836-.1092949-.4536667.0541267-.5872116.0382233-.0312347.0862083-.0547791.1081581-.0989914.0431519-.0869217-.0381851-.1795349-.0942192-.2587738-.1658401-.2345047-.1244659-.5676498.0237808-.8136597.1482391-.2459946.3839455-.4243546.6138802-.5964508.0679932-.0508881.7463989.7922211.7338409.9868317C41.4483147 77.5326462 41.0425339 77.9572601 40.9623413 78.3128204zM52.7772675 68.8424301c.178524-.1805496.1370201-.3558884.1116066-.5875473-.638382-.0066223-1.5842171-.683548-1.6101646.4527588-.0090179.3959808-.1801567.7859344-.4655495 1.0606232-.0336723.0324249-.071682.0696487-.0701027.1163635.0019455.0587463.0704689.0968399.1286812.0886154.0581818-.008255.1063614-.0480423.1502037-.0871506.1577835-.1406555.3048058-.2933121.4394302-.4562225.0373344-.0452194.075428-.0926132.127861-.1187897.0458717-.022934.0984459-.0274429.149559-.0315552.1551628-.0124817.3103294-.0249634.4654922-.0374451.0639038-.005127.129467-.0107346.1872292-.0384598.0540428-.0259247.09729-.069397.1394424-.1119995C52.61306 69.0085602 52.6951637 68.9254913 52.7772675 68.8424301zM60.1129112 79.609993c.178524-.1805496.1370201-.3558884.1116066-.5875473-.638382-.0066223-1.5842171-.683548-1.6101685.4527588-.0090141.3959808-.1801529.7859344-.4655495 1.0606232-.0336685.0324249-.0716782.0696487-.0700989.1163635.0019417.0587463.0704651.0968399.1286774.0886154.0581856-.008255.1063652-.0480423.1502075-.0871506.1577835-.1406555.3048058-.2933121.4394302-.4562225.0373306-.0452194.0754242-.0926132.127861-.1187897.0458717-.022934.0984459-.0274429.149559-.0315552.1551628-.0124817.3103256-.0249634.4654922-.0374451.0639-.005127.129467-.0107346.1872292-.0384598.054039-.0259247.09729-.069397.1394424-.1119995C59.9487038 79.776123 60.0308075 79.6930618 60.1129112 79.609993z"/><rect width="7.209" height="40.912" x="68.257" y="20.13" fill="#d6b24e" transform="rotate(-27.027 71.86 40.587)"/><rect width="7.209" height="40.912" x="66.278" y="21.14" fill="#fed35b" transform="rotate(-27.027 69.882 41.596)"/><rect width="7.209" height="40.912" x="82.224" y="16.335" fill="#d6b24e" transform="rotate(-27.027 85.829 36.791)"/><rect width="7.209" height="40.912" x="80.245" y="17.345" fill="#fed35b" transform="rotate(-27.027 83.85 37.8)"/><rect width="7.209" height="40.912" x="76.115" y="23.633" fill="#d6b24e" transform="rotate(-10.918 79.72 44.09)"/><rect width="7.209" height="40.912" x="73.934" y="24.054" fill="#fed35b" transform="rotate(-10.918 77.538 44.51)"/></svg>